<svg version="1.2" xmlns="http://www.w3.org/2000/svg" viewBox="0 0 808 789" width="308" height="389">
	<title>7561083-ai</title>
	<style>
		.s0 { fill: #ebebeb } 
		.s1 { fill: #e0e0e0 } 
		.s2 { fill: #263238 } 
		.s3 { fill: #455a64 } 
		.s4 { fill: #173574 } 
		.s5 { fill: #000000 } 
		.s6 { fill: #ff725e } 
		.s7 { fill: #db172a } 
	</style>
	<g id="Background Complete">
		<g id="&lt;Group&gt;">
			<g id="&lt;Group&gt;">
				<path id="&lt;Path&gt;" class="s0" d="m1026.5 180.3c-6.5 0.1-11.9-5.2-11.9-11.8 0-6.5 5.3-11.8 11.8-11.9 6.6 0 11.9 5.3 11.9 11.9 0.1 6.5-5.2 11.8-11.8 11.8z"/>
			</g>
			<g id="&lt;Group&gt;">
				<path id="&lt;Path&gt;" class="s0" d="m984.7 174.6c-3.8 0-6.8-3.1-6.8-6.8 0-3.8 3-6.9 6.8-6.9 3.8 0 6.8 3 6.8 6.8 0.1 3.8-3 6.9-6.8 6.9z"/>
			</g>
			<g id="&lt;Group&gt;">
				<path id="&lt;Path&gt;" class="s0" d="m1060.7 146.4c-3.7 0-6.8-3.1-6.8-6.8 0-3.8 3-6.9 6.8-6.9 3.8 0 6.9 3 6.9 6.8 0 3.8-3.1 6.9-6.9 6.9z"/>
			</g>
			<g id="&lt;Group&gt;">
				<path id="&lt;Path&gt;" class="s0" d="m1038.5 207.8c-1.9 0-3.4-1.5-3.5-3.4 0-1.9 1.6-3.4 3.5-3.4 1.8 0 3.4 1.5 3.4 3.4 0 1.9-1.5 3.4-3.4 3.4z"/>
			</g>
		</g>
		<g id="&lt;Group&gt;">
			<g id="&lt;Group&gt;">
				<path id="&lt;Path&gt;" class="s0" d="m-171.6 262.7c-6.5 0-11.9-5.3-11.9-11.8 0-6.6 5.3-11.9 11.9-11.9 6.5-0.1 11.8 5.2 11.9 11.8 0 6.5-5.3 11.9-11.9 11.9z"/>
			</g>
			<g id="&lt;Group&gt;">
				<path id="&lt;Path&gt;" class="s0" d="m-213.4 256.9c-3.7 0-6.8-3-6.8-6.8 0-3.8 3-6.8 6.8-6.9 3.8 0 6.8 3.1 6.9 6.8 0 3.8-3.1 6.9-6.9 6.9z"/>
			</g>
			<g id="&lt;Group&gt;">
				<path id="&lt;Path&gt;" class="s0" d="m-137.3 228.7c-3.8 0-6.9-3-6.9-6.8 0-3.8 3-6.9 6.8-6.9 3.8 0 6.9 3.1 6.9 6.8 0 3.8-3.1 6.9-6.8 6.9z"/>
			</g>
			<g id="&lt;Group&gt;">
				<path id="&lt;Path&gt;" class="s0" d="m-159.6 290.1c-1.9 0.1-3.4-1.5-3.5-3.4 0-1.8 1.6-3.4 3.5-3.4 1.8 0 3.4 1.5 3.4 3.4 0 1.9-1.5 3.4-3.4 3.4z"/>
			</g>
		</g>
		<g id="&lt;Group&gt;">
			<g id="&lt;Group&gt;">
			</g>
			<g id="&lt;Group&gt;">
				<path id="&lt;Path&gt;" class="s0" d="m243.5 803.9c-3.8 0.1-6.9-3-6.9-6.8 0-3.7 3-6.8 6.8-6.8 3.8 0 6.9 3 6.9 6.8 0 3.8-3.1 6.8-6.8 6.8z"/>
			</g>
			<g id="&lt;Group&gt;">
				<path id="&lt;Path&gt;" class="s0" d="m195.8 756.6c-3.7 0-6.8-3.1-6.8-6.8 0-3.8 3-6.9 6.8-6.9 3.8 0 6.8 3 6.9 6.8 0 3.8-3.1 6.9-6.9 6.9z"/>
			</g>
			<g id="&lt;Group&gt;">
				<path id="&lt;Path&gt;" class="s0" d="m107.5 809.6c-1.9 0-3.4-1.5-3.4-3.4 0-1.9 1.5-3.4 3.4-3.4 1.9 0 3.4 1.5 3.4 3.4 0 1.9-1.5 3.4-3.4 3.4z"/>
			</g>
			<g id="&lt;Group&gt;">
				<path id="&lt;Path&gt;" class="s0" d="m168.8 743.9c-1.9 0-3.4-1.5-3.4-3.4 0-1.9 1.5-3.4 3.4-3.4 1.9 0 3.4 1.5 3.4 3.4 0 1.9-1.5 3.4-3.4 3.4z"/>
			</g>
		</g>
		<g id="&lt;Group&gt;">
			<g id="&lt;Group&gt;">
			</g>
			<g id="&lt;Group&gt;">
				<g id="&lt;Group&gt;">
					<g id="&lt;Group&gt;">
						<g id="&lt;Group&gt;">
						</g>
					</g>
				</g>
			</g>
		</g>
		<g id="&lt;Group&gt;">
			<g id="&lt;Group&gt;">
			</g>
			<g id="&lt;Group&gt;">
				<g id="&lt;Group&gt;">
					<g id="&lt;Group&gt;">
						<g id="&lt;Group&gt;">
						</g>
					</g>
				</g>
			</g>
		</g>
		<g id="&lt;Group&gt;">
			<g id="&lt;Group&gt;">
			</g>
			<g id="&lt;Group&gt;">
				<g id="&lt;Group&gt;">
					<g id="&lt;Group&gt;">
						<g id="&lt;Group&gt;">
							<path id="&lt;Path&gt;" class="s1" d="m591.1 599.3c8.3-4.9 19.1-2.1 23.9 6.3 4.9 8.4 2 19.1-6.3 23.9-8.4 4.9-19.1 2.1-24-6.3-4.8-8.4-2-19.1 6.4-23.9z"/>
						</g>
					</g>
				</g>
			</g>
		</g>
		<g id="&lt;Group&gt;">
			<g id="&lt;Group&gt;">
			</g>
			<g id="&lt;Group&gt;">
				<g id="&lt;Group&gt;">
					<g id="&lt;Group&gt;">
						<g id="&lt;Group&gt;">
						</g>
					</g>
				</g>
			</g>
		</g>
		<g id="&lt;Group&gt;">
			<g id="&lt;Group&gt;">
			</g>
			<g id="&lt;Group&gt;">
				<g id="&lt;Group&gt;">
					<g id="&lt;Group&gt;">
						<g id="&lt;Group&gt;">
							<path id="&lt;Path&gt;" class="s1" d="m516.6 47c3.5-2.1 8-0.9 10 2.6 2.1 3.6 0.9 8-2.6 10.1-3.5 2-8 0.8-10.1-2.7-2-3.5-0.8-8 2.7-10z"/>
						</g>
					</g>
				</g>
			</g>
		</g>
	</g>
	<g id="Medicine">
		<g id="&lt;Group&gt;">
			<g id="&lt;Group&gt;">
				<g id="&lt;Group&gt;">
					<path id="&lt;Path&gt;" class="s2" d="m774.5 696c-0.3 0-0.6-7.4-0.6-16.5 0-9.2 0.2-16.6 0.5-16.6 0.2 0 0.5 7.4 0.5 16.6 0.1 9.1-0.1 16.5-0.4 16.5z"/>
				</g>
			</g>
			<g id="&lt;Group&gt;">
			</g>
			<g id="&lt;Group&gt;">
				<g id="&lt;Group&gt;">
					<path id="&lt;Path&gt;" class="s2" d="m800 695.9c-0.3 0-0.5-7.4-0.6-16.5 0-9.2 0.2-16.6 0.5-16.6 0.3 0 0.6 7.4 0.6 16.6 0 9.1-0.2 16.5-0.5 16.5z"/>
				</g>
			</g>
			<g id="&lt;Group&gt;">
				<g id="&lt;Group&gt;">
					<path id="&lt;Path&gt;" class="s2" d="m812.8 695.9c-0.3 0-0.5-7.4-0.6-16.6 0-9.1 0.2-16.5 0.5-16.5 0.3 0 0.5 7.4 0.6 16.5 0 9.2-0.2 16.6-0.5 16.6z"/>
				</g>
			</g>
			<g id="&lt;Group&gt;">
				<g id="&lt;Group&gt;">
					<path id="&lt;Path&gt;" class="s2" d="m825.6 695.8c-0.3 0-0.6-7.4-0.6-16.5 0-9.2 0.2-16.6 0.5-16.6 0.3 0 0.5 7.4 0.5 16.6 0.1 9.1-0.1 16.5-0.4 16.5z"/>
				</g>
			</g>
			<g id="&lt;Group&gt;">
				<g id="&lt;Group&gt;">
					<path id="&lt;Path&gt;" class="s2" d="m838.4 695.8c-0.3 0-0.6-7.4-0.6-16.6-0.1-9.1 0.2-16.5 0.4-16.5 0.3 0 0.6 7.4 0.6 16.5 0 9.2-0.2 16.6-0.4 16.6z"/>
				</g>
			</g>
			<g id="&lt;Group&gt;">
				<path id="&lt;Path&gt;" class="s1" d="m837.4 696.6c0 0-6.8 5.2-29 5.7-22.3 0.6-37.2-5.5-37.2-5.5z"/>
			</g>
			<g id="&lt;Group&gt;" style="opacity: .2">
				<g id="&lt;Group&gt;">
				</g>
			</g>
		</g>
	</g>
	<g id="Brain">
		<g id="&lt;Group&gt;">
			<g id="&lt;Group&gt;">
				<g id="&lt;Group&gt;">
					<path id="&lt;Path&gt;" class="s2" d="m542.3 151.8q0 0.1-0.9-0.4-1-0.6-2.4-1.4c-2.2-1.3-5.2-3.1-8.8-5.3-7.4-4.6-17.5-10.8-28.6-17.7-11.1-7-21.2-13.3-28.6-17.9-3.5-2.3-6.5-4.1-8.6-5.5q-1.4-0.9-2.4-1.5-0.8-0.5-0.8-0.6 0.1 0 0.9 0.4 0.9 0.4 2.5 1.3c2.1 1.2 5.1 3 8.8 5.2 7.4 4.5 17.5 10.7 28.7 17.7 11.2 7 21.3 13.3 28.5 18 3.6 2.3 6.5 4.1 8.6 5.5q1.4 1 2.3 1.6 0.8 0.6 0.8 0.6z"/>
				</g>
			</g>
			<g id="&lt;Group&gt;">
				<g id="&lt;Group&gt;">
					<g id="&lt;Group&gt;">
						<path id="&lt;Path&gt;" class="s2" d="m792.7 149.2c0 0.3-20.4 1.2-45.6 2.1-25.1 0.9-45.5 1.4-45.5 1.1 0-0.3 20.4-1.2 45.5-2.1 25.1-0.9 45.5-1.4 45.6-1.1z"/>
					</g>
				</g>
				<g id="&lt;Group&gt;">
					<g id="&lt;Group&gt;">
						<path id="&lt;Path&gt;" class="s2" d="m700 241.7q0 0-1.3 0.8-1.4 0.9-4.1 2.4c-3.5 2.2-8.8 5.2-15.5 9.2-13.6 8-33.3 19.4-57.5 33.6l-0.2 0.1-0.2-0.1c-22.4-12.8-49.2-28.1-78.9-45.1l-0.2-0.1v-0.3c-0.1-28.1-0.2-58.8-0.3-90.8v-0.3l0.2-0.2c27.6-16 54.1-31.4 78.6-45.6l0.3-0.2 0.2 0.2c29.6 17 56.3 32.3 78.8 45.2l0.2 0.2v0.2c0 28 0 50.7 0 66.5 0 7.8 0 13.9 0 18q0 3.1 0 4.7-0.1 1.6-0.1 1.6c0 0 0-0.6 0-1.6q-0.1-1.7-0.1-4.8c0-4.1-0.1-10.2-0.2-18.1-0.1-15.7-0.2-38.4-0.4-66.3l0.2 0.3c-22.5-12.9-49.3-28.1-78.9-45.1h0.5c-24.5 14.3-51 29.7-78.6 45.7l0.3-0.4c0.1 32 0.2 62.7 0.3 90.8l-0.3-0.4c29.6 17 56.5 32.4 78.8 45.2h-0.4c24.3-13.9 43.9-25.3 57.5-33.2 6.8-3.9 12.1-6.9 15.8-9q2.6-1.5 4.1-2.3c0.9-0.5 1.4-0.8 1.4-0.8z"/>
					</g>
				</g>
				<g id="&lt;Group&gt;">
					<path id="&lt;Path&gt;" class="s3" d="m464 111.8c-4.4 0-8-3.6-8.1-8 0-4.4 3.6-8 8-8.1 4.5 0 8.1 3.6 8.1 8 0 4.5-3.6 8.1-8 8.1z"/>
				</g>
				<g id="&lt;Group&gt;">
					<path id="&lt;Path&gt;" class="s3" d="m542.3 164.2c-6.8 0-12.4-5.5-12.4-12.3 0-6.9 5.5-12.5 12.3-12.5 6.9 0 12.5 5.5 12.5 12.4 0 6.8-5.5 12.4-12.4 12.4z"/>
				</g>
				<g id="&lt;Group&gt;">
					<path id="&lt;Path&gt;" class="s3" d="m698.7 163.7c-6.9 0-12.5-5.5-12.5-12.4 0-6.8 5.5-12.4 12.4-12.4 6.8 0 12.4 5.5 12.4 12.4 0.1 6.8-5.5 12.4-12.3 12.4z"/>
				</g>
				<g id="&lt;Group&gt;">
					<path id="&lt;Path&gt;" class="s3" d="m699 257.2c-6.9 0.1-12.5-5.5-12.5-12.3 0-6.9 5.5-12.4 12.4-12.5 6.8 0 12.4 5.5 12.4 12.4 0.1 6.9-5.5 12.4-12.3 12.4z"/>
				</g>
				<g id="&lt;Group&gt;">
					<path id="&lt;Path&gt;" class="s3" d="m792.7 157.5c-5.1 0-9.3-4.1-9.3-9.2 0-5.2 4.1-9.3 9.2-9.3 5.2-0.1 9.3 4.1 9.3 9.2 0 5.1-4.1 9.3-9.2 9.3z"/>
				</g>
				<g id="&lt;Group&gt;">
					<path id="&lt;Path&gt;" class="s3" d="m621.4 300.5c-6.9 0-12.5-5.5-12.5-12.4 0-6.9 5.5-12.4 12.4-12.4 6.8-0.1 12.4 5.5 12.4 12.3 0.1 6.9-5.5 12.4-12.3 12.5z"/>
				</g>
				<g id="&lt;Group&gt;">
					<path id="&lt;Path&gt;" class="s3" d="m544.3 253.3c-6.9 0-12.4-5.5-12.5-12.3 0-6.9 5.6-12.4 12.4-12.5 6.9 0 12.4 5.5 12.5 12.4 0 6.8-5.5 12.4-12.4 12.4z"/>
				</g>
				<g id="&lt;Group&gt;">
					<g id="&lt;Group&gt;">
						<path id="&lt;Path&gt;" class="s2" d="m620.8 103.3c-0.2 0-0.5-19.7-0.6-43.9-0.1-24.3 0.1-43.9 0.4-43.9 0.3 0 0.5 19.6 0.6 43.9 0.1 24.2-0.1 43.9-0.4 43.9z"/>
					</g>
				</g>
				<g id="&lt;Group&gt;">
					<path id="&lt;Path&gt;" class="s3" d="m620.9 118.1c-6.9 0-12.4-5.5-12.5-12.3 0-6.9 5.6-12.5 12.4-12.5 6.9 0 12.4 5.5 12.5 12.4 0 6.8-5.5 12.4-12.4 12.4z"/>
				</g>
				<g id="&lt;Group&gt;">
					<path id="&lt;Path&gt;" class="s3" d="m620.6 22.1c-5.6 0.1-10.1-4.4-10.1-10-0.1-5.6 4.4-10.1 10-10.1 5.6-0.1 10.1 4.4 10.1 10 0.1 5.6-4.4 10.1-10 10.1z"/>
				</g>
			</g>
		</g>
		<g id="&lt;Group&gt;">
			<g id="&lt;Group&gt;">
				<g id="&lt;Group&gt;">
					<path id="&lt;Path&gt;" class="s2" d="m76.6 240.4c-0.1 0.2-10.1-6.2-22.2-14.4-12.1-8.2-21.7-15.1-21.6-15.3 0.2-0.2 10.1 6.2 22.2 14.4 12.1 8.2 21.8 15.1 21.6 15.3z"/>
				</g>
			</g>
			<g id="&lt;Group&gt;">
				<g id="&lt;Group&gt;">
					<g id="&lt;Group&gt;">
						<path id="&lt;Path&gt;" class="s2" d="m313.7 376.1c-0.1 0.3-18.2-9.1-40.4-20.9-22.3-11.8-40.2-21.5-40-21.8 0.1-0.2 18.2 9.1 40.4 20.9 22.3 11.8 40.2 21.6 40 21.8z"/>
					</g>
				</g>
				<g id="&lt;Group&gt;">
					<g id="&lt;Group&gt;">
						<path id="&lt;Path&gt;" class="s2" d="m234.4 330.3q0 0-1.4 0.8-1.4 0.9-4 2.4c-3.6 2.1-8.9 5.2-15.6 9.2-13.6 7.9-33.2 19.4-57.4 33.6l-0.2 0.1-0.2-0.1c-22.4-12.8-49.3-28.2-78.9-45.1l-0.3-0.1v-0.3c-0.1-28.1-0.2-58.8-0.3-90.8v-0.3l0.3-0.2c27.6-16 54.1-31.4 78.5-45.6l0.3-0.2 0.2 0.2c29.6 17 56.3 32.3 78.8 45.2l0.2 0.1v0.3c0.1 28 0.1 50.7 0.1 66.5 0 7.8-0.1 13.9-0.1 18q0 3.1 0 4.7 0 1.6 0 1.6c0 0-0.1-0.6-0.1-1.7q0-1.6-0.1-4.7c0-4.2-0.1-10.3-0.1-18.1-0.1-15.7-0.3-38.4-0.4-66.3l0.2 0.3c-22.6-12.9-49.3-28.2-78.9-45.1h0.4c-24.4 14.2-50.9 29.7-78.5 45.7l0.2-0.4c0.1 32 0.2 62.7 0.3 90.8l-0.2-0.4c29.5 16.9 56.4 32.4 78.8 45.2h-0.4c24.2-14 43.8-25.3 57.5-33.2 6.8-3.9 12.1-6.9 15.7-9q2.7-1.5 4.1-2.3c0.9-0.6 1.5-0.8 1.5-0.8z"/>
					</g>
				</g>
				<g id="&lt;Group&gt;">
					<path id="&lt;Path&gt;" class="s3" d="m32.8 218.7c-4.4 0-8-3.5-8-8 0-4.4 3.5-8 8-8 4.4 0 8 3.5 8 8 0.1 4.4-3.5 8-8 8z"/>
				</g>
				<g id="&lt;Group&gt;">
					<path id="&lt;Path&gt;" class="s3" d="m76.7 252.8c-6.9 0-12.5-5.5-12.5-12.4 0-6.8 5.5-12.4 12.4-12.4 6.8 0 12.4 5.5 12.4 12.3 0.1 6.9-5.5 12.5-12.3 12.5z"/>
				</g>
				<g id="&lt;Group&gt;">
					<path id="&lt;Path&gt;" class="s3" d="m233 252.3c-6.9 0-12.4-5.5-12.4-12.4-0.1-6.8 5.5-12.4 12.3-12.4 6.9 0 12.4 5.5 12.5 12.3 0 6.9-5.5 12.5-12.4 12.5z"/>
				</g>
				<g id="&lt;Group&gt;">
					<path id="&lt;Path&gt;" class="s3" d="m233.3 345.8c-6.9 0-12.4-5.5-12.4-12.3-0.1-6.9 5.5-12.5 12.3-12.5 6.9 0 12.5 5.5 12.5 12.4 0 6.8-5.5 12.4-12.4 12.4z"/>
				</g>
				<g id="&lt;Group&gt;">
					<path id="&lt;Path&gt;" class="s3" d="m313.8 385.4c-5.2 0-9.3-4.1-9.3-9.2-0.1-5.2 4.1-9.3 9.2-9.3 5.1-0.1 9.3 4.1 9.3 9.2 0 5.1-4.1 9.3-9.2 9.3z"/>
				</g>
				<g id="&lt;Group&gt;">
					<path id="&lt;Path&gt;" class="s3" d="m155.7 389c-6.9 0.1-12.4-5.5-12.4-12.3-0.1-6.9 5.5-12.4 12.3-12.5 6.9 0 12.4 5.5 12.5 12.4 0 6.9-5.5 12.4-12.4 12.4z"/>
				</g>
				<g id="&lt;Group&gt;">
					<path id="&lt;Path&gt;" class="s3" d="m78.6 341.9c-6.8 0-12.4-5.5-12.4-12.4 0-6.8 5.5-12.4 12.4-12.4 6.8 0 12.4 5.5 12.4 12.4 0 6.8-5.5 12.4-12.4 12.4z"/>
				</g>
				<g id="&lt;Group&gt;">
					<g id="&lt;Group&gt;">
						<path id="&lt;Path&gt;" class="s2" d="m155.2 191.8c-0.3 0-0.6-19.6-0.7-43.8-0.1-24.3 0.1-43.9 0.4-43.9 0.3 0 0.6 19.6 0.7 43.9 0 24.2-0.1 43.8-0.4 43.8z"/>
					</g>
				</g>
				<g id="&lt;Group&gt;">
					<path id="&lt;Path&gt;" class="s3" d="m155.2 206.7c-6.8 0-12.4-5.5-12.4-12.4 0-6.8 5.5-12.4 12.4-12.4 6.8 0 12.4 5.5 12.4 12.4 0 6.8-5.5 12.4-12.4 12.4z"/>
				</g>
				<g id="&lt;Group&gt;">
					<path id="&lt;Path&gt;" class="s3" d="m154.9 110.7c-5.6 0-10.1-4.5-10.1-10 0-5.6 4.5-10.1 10.1-10.2 5.5 0 10.1 4.5 10.1 10.1 0 5.6-4.5 10.1-10.1 10.1z"/>
				</g>
			</g>
		</g>
		<g id="&lt;Group&gt;">
			<g id="&lt;Group&gt;">
				<g id="&lt;Group&gt;">
					<path id="&lt;Path&gt;" class="s2" d="m406 714.5q0-0.1 0.9 0.4 1 0.5 2.4 1.4c2.2 1.3 5.2 3.1 8.8 5.2 7.4 4.7 17.5 10.9 28.6 17.8 11.1 6.9 21.2 13.2 28.6 17.9 3.5 2.2 6.5 4.1 8.6 5.5q1.4 0.9 2.4 1.5 0.8 0.5 0.8 0.6-0.1 0-0.9-0.4-0.9-0.5-2.5-1.4c-2.1-1.2-5.1-2.9-8.8-5.2-7.4-4.4-17.5-10.7-28.7-17.6-11.2-7-21.3-13.4-28.5-18-3.6-2.3-6.5-4.2-8.6-5.6q-1.4-0.9-2.3-1.5-0.8-0.6-0.8-0.6z"/>
				</g>
			</g>
			<g id="&lt;Group&gt;">
				<g id="&lt;Group&gt;">
					<g id="&lt;Group&gt;">
						<path id="&lt;Path&gt;" class="s2" d="m168.9 578.7c0.1-0.2 18.3 9.1 40.5 20.9 22.2 11.8 40.1 21.6 40 21.8-0.2 0.3-18.3-9.1-40.5-20.9-22.2-11.8-40.1-21.5-40-21.8z"/>
					</g>
				</g>
				<g id="&lt;Group&gt;">
					<g id="&lt;Group&gt;">
						<path id="&lt;Path&gt;" class="s2" d="m248.3 624.6q0-0.1 1.3-0.9 1.4-0.8 4.1-2.4c3.5-2.1 8.8-5.2 15.5-9.1 13.6-8 33.3-19.5 57.5-33.6l0.2-0.2 0.1 0.2c22.5 12.8 49.3 28.1 79 45l0.2 0.2v0.2c0.1 28.1 0.2 58.9 0.3 90.9v0.3l-0.2 0.1c-27.6 16.1-54.1 31.5-78.6 45.7l-0.3 0.1-0.2-0.1c-29.6-17-56.3-32.3-78.8-45.3l-0.2-0.1v-0.2c0-28 0-50.8 0-66.5 0-7.8 0-13.9 0-18.1q0-3 0-4.7 0.1-1.5 0.1-1.5c0 0 0 0.5 0 1.6q0.1 1.6 0.1 4.7c0 4.2 0.1 10.3 0.2 18.1 0.1 15.8 0.2 38.4 0.4 66.4l-0.2-0.3c22.5 12.8 49.3 28.1 78.9 45h-0.5c24.5-14.2 50.9-29.6 78.6-45.7l-0.3 0.5c-0.1-32-0.2-62.8-0.3-90.8l0.3 0.4c-29.6-17-56.5-32.4-78.8-45.3h0.4c-24.3 14-43.9 25.4-57.5 33.2-6.8 3.9-12.1 7-15.8 9q-2.6 1.6-4.1 2.4c-0.9 0.5-1.4 0.8-1.4 0.8z"/>
					</g>
				</g>
				<g id="&lt;Group&gt;">
					<path id="&lt;Path&gt;" class="s3" d="m484.3 770.5c-4.4 0-8-3.5-8-8 0-4.4 3.6-8 8-8 4.4 0 8 3.5 8 8 0.1 4.4-3.5 8-8 8z"/>
				</g>
				<g id="&lt;Group&gt;">
					<path id="&lt;Path&gt;" class="s3" d="m406.1 726.8c-6.9 0.1-12.5-5.5-12.5-12.3 0-6.9 5.5-12.4 12.4-12.4 6.8-0.1 12.4 5.5 12.4 12.3 0 6.9-5.5 12.4-12.3 12.4z"/>
				</g>
				<g id="&lt;Group&gt;">
					<path id="&lt;Path&gt;" class="s3" d="m249.7 727.4c-6.8 0-12.4-5.5-12.4-12.4-0.1-6.9 5.5-12.4 12.3-12.4 6.9-0.1 12.5 5.5 12.5 12.3 0 6.9-5.5 12.4-12.4 12.5z"/>
				</g>
				<g id="&lt;Group&gt;">
					<path id="&lt;Path&gt;" class="s3" d="m249.4 633.8c-6.8 0-12.4-5.5-12.4-12.3-0.1-6.9 5.5-12.5 12.3-12.5 6.9 0 12.5 5.5 12.5 12.4 0 6.8-5.5 12.4-12.4 12.4z"/>
				</g>
				<g id="&lt;Group&gt;">
					<path id="&lt;Path&gt;" class="s3" d="m168.9 588c-5.1 0-9.3-4.1-9.3-9.3 0-5.1 4.1-9.2 9.3-9.3 5.1 0 9.3 4.2 9.3 9.3 0 5.1-4.1 9.3-9.3 9.3z"/>
				</g>
				<g id="&lt;Group&gt;">
					<path id="&lt;Path&gt;" class="s3" d="m327 590.6c-6.8 0-12.4-5.5-12.4-12.4-0.1-6.8 5.5-12.4 12.3-12.4 6.9 0 12.5 5.5 12.5 12.4 0 6.8-5.5 12.4-12.4 12.4z"/>
				</g>
				<g id="&lt;Group&gt;">
					<path id="&lt;Path&gt;" class="s3" d="m404.1 637.7c-6.9 0.1-12.4-5.5-12.5-12.3 0-6.9 5.5-12.4 12.4-12.5 6.9 0 12.4 5.5 12.4 12.4 0.1 6.8-5.5 12.4-12.3 12.4z"/>
				</g>
				<g id="&lt;Group&gt;">
					<path id="&lt;Path&gt;" class="s3" d="m327.5 772.9c-6.9 0.1-12.4-5.5-12.5-12.3 0-6.9 5.5-12.4 12.4-12.5 6.9 0 12.4 5.6 12.4 12.4 0.1 6.9-5.5 12.4-12.3 12.4z"/>
				</g>
			</g>
		</g>
		<g id="&lt;Group&gt;">
			<g id="&lt;Group&gt;">
				<g id="&lt;Group&gt;">
					<g id="&lt;Group&gt;">
						<g id="&lt;Group&gt;">
							<path id="&lt;Path&gt;" class="s4" d="m490.5 526.8c3.6-0.5-5.1 57.6-5.1 57.6 0 0 15 53-4.9 58.1-20 5-57.3-63.4-67.6-76.6-10.3-13.3-34.9-29.1-32.1-31.9 8.6-8.7 106.1-6.8 109.7-7.2z"/>
						</g>
						<g id="&lt;Group&gt;" style="opacity: .3">
							<path id="&lt;Path&gt;" class="s4" d="m492.5 528.8c3.6-0.5-5.1 57.6-5.1 57.6 0 0 15 53-4.9 58.1-20 5-57.3-63.4-67.6-76.6-10.3-13.3-34.9-29.1-32.1-31.9 8.6-8.7 106.1-6.8 109.7-7.2z"/>
						</g>
					</g>
					<g id="&lt;Group&gt;">
						<path id="&lt;Path&gt;" class="s4" d="m109.9 393.8c-2.3-16 8.6-24.2 8.6-24.2-19-46.7 43.4-87.3 43.4-87.3 13-38.6 63.9-54.7 63.9-54.7 47.1-51.8 110.5-38.3 110.5-38.3 53.1-28.6 123 2.6 123 2.6 36.4-12.5 60.5 17.3 60.5 17.3 72.8-1 94.8 65.8 94.8 65.8 49.6 11.5 41.7 60.3 41.7 60.3 92.8 107.3 1.4 194.1-25.5 203.6-26.9 9.6-54.1 7-72.8 5.4-65.5-5.5-167.4-2.3-167.4-2.3l-66.2 8.2c-85.2-1.2-86.9-73.2-86.9-73.2l-52.4-4.9c-59.7-10.7-61.3-60.9-61.3-60.9 0 0-11.7-1.4-13.9-17.4z"/>
					</g>
					<g id="&lt;Group&gt;">
						<g id="&lt;Group&gt;">
							<path id="&lt;Path&gt;" class="s2" d="m500.7 356.4c0.1 0.2-3.1 0.5-7.2 4.1-2 1.7-4.1 4.4-5.5 8-1.3 3.6-2 8.3-0.3 13l0.2 0.6-0.6-0.2c-7-1.8-15.2-3.6-24.5-4.7-9.4-1-19.8-1.2-30.9-0.3-22.3 1.9-47.5 9.1-70.7 23.8l-0.2 0.1-0.2-0.1c-4.9-1.5-10.2-2.7-15.7-3.5-12.2-1.9-24.4-2.4-35.9-1.2-5.8 0.7-11.4 1.9-16.6 3.9-5.3 2-10.3 4.1-14.9 6.9-4.6 2.7-8.6 6-12.4 9.4-3.7 3.5-7.4 6.8-10.5 10.4-6.1 7.2-10.7 15-13.7 22.4-1.6 3.8-2.7 7.5-3.5 11-0.7 3.6-1 7-0.9 10.2 0.1 6.4 1.1 11.9 2.2 16.3 1.1 4.4 2.2 7.8 2.9 10q0.6 1.7 0.9 2.6 0.3 0.9 0.3 0.9c0 0-2.2-4.6-4.5-13.4-1.1-4.4-2.2-9.9-2.4-16.4-0.1-3.2 0.2-6.7 0.9-10.3 0.7-3.6 1.8-7.4 3.4-11.1 3-7.6 7.6-15.4 13.8-22.8 3.1-3.7 6.8-6.9 10.5-10.4 3.8-3.5 7.8-6.9 12.5-9.7 4.6-2.8 9.8-4.9 15-6.9 5.3-2.1 11-3.3 16.8-4 11.7-1.2 24-0.7 36.3 1.1 5.5 0.9 10.9 2.1 15.8 3.7h-0.4c23.3-14.7 48.7-22 71.1-23.8 11.2-0.9 21.7-0.6 31 0.5 9.4 1.1 17.7 2.9 24.7 4.9l-0.4 0.3c-1.7-4.9-0.9-9.7 0.5-13.3 1.5-3.7 3.7-6.4 5.7-8.2 2.1-1.8 4-2.7 5.3-3.2 1.3-0.5 2.1-0.6 2.1-0.6z"/>
						</g>
					</g>
					<g id="&lt;Group&gt;">
						<g id="&lt;Group&gt;">
							<path id="&lt;Path&gt;" class="s2" d="m591.6 349.3q0 0-0.3 1-0.3 0.9-0.8 2.6c-0.7 2.4-2 5.8-3.7 10.2-1.9 4.3-4.2 9.5-7.6 15.3-1.6 2.9-3.5 5.9-5.6 9.1-2.1 3.1-4.4 6.4-7.1 9.6-10.4 13.1-25.3 27.1-45 37.6-9.8 5.1-20.8 9.3-32.5 12.3-11.8 2.8-24.3 4.3-37.2 4.1-7 0-13.9-0.8-20.7-1.8-6.7-1.1-13.2-2.7-19.5-4.6h0.5c-10.9 8.3-23.6 12.9-35.8 14.3-12.2 1.5-23.8-0.1-33.7-3.6l0.4-0.1c-4.4 3.4-9.1 5.8-13.8 7.5-4.7 1.8-9.3 2.8-13.7 3.2q-1.7 0.3-3.3 0.3c-1 0-2.1 0.1-3.1 0.1-2-0.1-4-0.1-5.9-0.3q-1.4-0.2-2.8-0.4-1.3-0.2-2.6-0.4c-1.7-0.3-3.3-0.8-4.8-1.2-6-1.8-10.3-4.1-13.2-5.8-1.4-0.9-2.3-1.7-3-2.2-0.7-0.5-1.1-0.8-1.1-0.8 0 0 0.4 0.3 1.1 0.7 0.7 0.5 1.8 1.2 3.2 2.1 2.8 1.6 7.1 3.9 13.1 5.5 1.5 0.4 3.1 0.9 4.8 1.1q1.3 0.3 2.6 0.5 1.3 0.2 2.7 0.3c1.9 0.3 3.9 0.2 5.9 0.3 1 0 2.1-0.1 3.1-0.1q1.6-0.1 3.2-0.3c4.4-0.5 8.9-1.5 13.5-3.3 4.7-1.7 9.3-4.1 13.6-7.5l0.2-0.1 0.2 0.1c9.8 3.5 21.3 5 33.3 3.5 12-1.5 24.5-6 35.3-14.2l0.2-0.2 0.2 0.1c6.3 1.8 12.7 3.4 19.4 4.5 6.7 1 13.6 1.7 20.6 1.8 12.7 0.2 25.1-1.4 36.8-4.1 11.7-2.9 22.6-7.1 32.4-12.2 19.5-10.3 34.4-24.2 44.9-37.1 2.6-3.3 4.9-6.5 7.1-9.6 2-3.1 4-6.1 5.6-9 3.4-5.7 5.8-10.9 7.7-15.2 1.8-4.3 3.1-7.7 3.9-10q0.6-1.7 0.9-2.7 0.4-0.9 0.4-0.9z"/>
						</g>
					</g>
					<g id="&lt;Group&gt;">
						<g id="&lt;Group&gt;">
							<path id="&lt;Path&gt;" class="s2" d="m286.8 507.3c0 0-0.1-0.7-0.1-1.9-0.1-1.3-0.1-3.1 0-5.3 0.2-4.5 0.6-10.8 3.2-17.2 2.6-6.5 7.3-11.2 11.3-13.2 2-1.1 3.8-1.7 5-1.9 1.3-0.2 2-0.2 2-0.1 0 0.2-2.8 0.3-6.6 2.6-3.8 2.2-8.2 6.7-10.7 13-2.6 6.2-3.1 12.4-3.5 16.8-0.3 4.4-0.4 7.2-0.6 7.2z"/>
						</g>
					</g>
					<g id="&lt;Group&gt;">
						<g id="&lt;Group&gt;">
							<path id="&lt;Path&gt;" class="s2" d="m574 493q0 0-0.6-0.1-0.7-0.2-1.8-0.5-2.5-0.6-6.8-1.7c-1.5-0.4-3.1-0.8-4.9-1.3q-2.8-0.6-5.9-1.3-3.2-0.7-6.8-1.4-3.6-0.7-7.7-1.4c-10.7-2-23.6-3.7-37.9-4.7-14.4-1.1-30.3-1.2-46.9-0.1-21.3 1.3-41.2 4.5-58.1 8.5-16.9 3.9-30.9 8.7-40.9 12.1l0.2-0.2c-0.3 3-1.1 5.7-2.3 7.8-1.2 2.1-2.7 3.5-3.9 4.5-2.6 2-4.2 2.8-4.2 2.8q0-0.1 1-0.8c0.7-0.5 1.8-1.1 3-2.2 1.2-1.1 2.6-2.5 3.7-4.5 1.1-2.1 1.9-4.7 2.2-7.7v-0.1l0.2-0.1c9.9-3.6 23.8-8.4 40.8-12.5 16.9-4.1 36.9-7.3 58.3-8.7 16.6-1 32.5-0.9 46.9 0.2 14.4 1.1 27.3 2.9 38.1 5q4 0.7 7.6 1.4 3.6 0.8 6.8 1.6 3.2 0.7 5.9 1.4c1.8 0.4 3.4 0.9 4.9 1.3q4.3 1.2 6.7 1.9 1.1 0.3 1.8 0.5 0.6 0.2 0.6 0.3z"/>
						</g>
					</g>
					<g id="&lt;Group&gt;">
						<g id="&lt;Group&gt;">
							<path id="&lt;Path&gt;" class="s2" d="m627.6 463.8q0 0 0.6-0.4 0.6-0.4 1.6-1c1.4-1 3.5-2.3 6-4.3 5.1-3.9 12.3-10 18.8-19.5 3.2-4.7 6.2-10.3 8.2-16.7 2-6.4 3.2-13.6 2.8-21.1-0.4-7.5-2.4-15.4-6.6-22.5-4.2-7-10.5-13.1-18.3-17.1-4.7-2.5-10-3.8-15-4.2l-0.7-0.1 0.3-0.7c3.5-6.9 5.5-14.4 5-21.7-0.3-7.3-3.1-13.9-6.6-19.5-3.4-5.7-7.9-10.3-12.8-13.4-4.9-3.2-10.2-5.1-15-6-4.9-1-9.4-1.2-13.3-1.1-4 0.2-7.3 0.5-10.1 0.8q-4 0.3-6.3 0.6-1 0-1.6 0.1-0.6 0-0.6 0 0 0 0.5-0.1 0.7-0.1 1.7-0.2 2.2-0.3 6.3-0.8c2.7-0.3 6.1-0.7 10.1-0.9 3.9-0.2 8.5-0.1 13.4 0.9 4.9 0.9 10.3 2.7 15.3 6 5 3.2 9.7 7.9 13.2 13.6 3.6 5.7 6.4 12.5 6.8 19.9 0.5 7.5-1.6 15.2-5.1 22.3l-0.4-0.8c5.1 0.4 10.5 1.8 15.4 4.4 7.9 4 14.4 10.3 18.7 17.5 4.3 7.2 6.3 15.3 6.7 22.9 0.3 7.7-0.9 15-3 21.5-2.1 6.5-5.1 12.1-8.4 16.9-6.6 9.5-13.9 15.6-19.1 19.3-5.3 3.8-8.5 5.4-8.5 5.4z"/>
						</g>
					</g>
					<g id="&lt;Group&gt;">
						<g id="&lt;Group&gt;">
							<path id="&lt;Path&gt;" class="s2" d="m445.4 373.9c0 0.1-0.5 0-1.5-0.2-0.5-0.1-1.1-0.2-1.8-0.5-0.7-0.2-1.5-0.4-2.3-0.8-1.7-0.7-3.5-1.9-5.4-3.4-1.9-1.5-3.7-3.4-5.3-5.7-1.6-2.3-2.8-4.7-3.6-7-0.7-2.3-1.1-4.4-1.2-6.2-0.1-0.9-0.1-1.8 0-2.5 0-0.7 0-1.3 0.1-1.8 0.2-1 0.3-1.5 0.4-1.5 0.2 0-0.2 2.2 0.2 5.7 0.2 1.8 0.7 3.8 1.4 6 0.9 2.2 2 4.5 3.5 6.7 1.6 2.2 3.3 4.1 5.1 5.6 1.8 1.5 3.6 2.6 5.1 3.4 3.2 1.6 5.4 2 5.3 2.2z"/>
						</g>
					</g>
					<g id="&lt;Group&gt;">
						<g id="&lt;Group&gt;">
							<path id="&lt;Path&gt;" class="s2" d="m371.7 369.3c0.1-0.1 0.8 1.7 1.1 4.8 0.3 3.1 0.1 7.5-1.4 12-1.6 4.5-4.1 8.1-6.2 10.3-2.2 2.2-3.9 3.2-3.9 3.1-0.1-0.1 1.4-1.3 3.3-3.6 2-2.3 4.3-5.8 5.8-10.2 1.5-4.3 1.8-8.5 1.7-11.5-0.2-3-0.6-4.9-0.4-4.9z"/>
						</g>
					</g>
					<g id="&lt;Group&gt;">
						<g id="&lt;Group&gt;">
							<path id="&lt;Path&gt;" class="s2" d="m308 395.4q0 0.1-0.8 0.2-0.8 0.1-2.4-0.1c-2-0.4-4.8-1.5-7.4-4.1-2.6-2.5-5-6.3-5.9-11.1-1-4.7-0.7-10-0.2-15.4 0.5-5.4 0.9-10.5 0.5-15.2-0.2-4.7-0.9-8.9-1.7-12.3-0.8-3.5-1.7-6.2-2.3-8.1-0.6-1.9-1-2.9-0.9-3q0 0 0.4 0.7 0.3 0.8 0.9 2.2c0.7 1.8 1.7 4.5 2.6 8 0.9 3.5 1.7 7.7 2 12.4 0.4 4.8 0.1 10-0.5 15.4-0.5 5.4-0.8 10.6 0.1 15.1 0.8 4.6 3.1 8.3 5.5 10.8 2.4 2.5 5.1 3.7 7 4.2 1.9 0.4 3.1 0.2 3.1 0.3z"/>
						</g>
					</g>
					<g id="&lt;Group&gt;">
						<g id="&lt;Group&gt;">
							<path id="&lt;Path&gt;" class="s2" d="m261.1 419.5c-0.3-0.1 2.2-2.5 3-7.6 0.9-5-0.4-12.4-5.2-18.6-4.9-6.2-11.1-9.9-15.6-12.5q-3.1-1.8-5.3-3c-1.3-0.7-2-1.1-1.9-1.2 0-0.1 0.8 0.2 2.1 0.8 1.3 0.6 3.2 1.5 5.5 2.7 4.5 2.5 11 6.2 16 12.5 5 6.5 6.2 14.3 5.1 19.4-0.5 2.6-1.4 4.6-2.3 5.8-0.8 1.2-1.4 1.8-1.4 1.7z"/>
						</g>
					</g>
					<g id="&lt;Group&gt;">
						<g id="&lt;Group&gt;">
							<path id="&lt;Path&gt;" class="s2" d="m237.7 456.8q0 0.1-1.5 0.1-1.7 0-4.4 0.1c-1.9-0.2-4.2-0.3-6.8-0.6-2.7-0.5-5.7-0.9-8.9-1.8-6.6-1.7-14.2-4.6-21.8-9.2-7.7-4.6-15.4-10.8-21.9-18.8-6.5-8-11.1-16.9-13.8-25.4-1.3-4.3-2-8.6-2-12.6 0-2 0.1-3.9 0.4-5.7 0.4-1.9 1-3.5 1.5-5.1 2.4-6.4 5.3-11.1 7.7-14 1.2-1.5 2.3-2.4 3.1-3q1.2-0.9 1.3-0.9c0 0.1-0.4 0.4-1.2 1-0.7 0.7-1.7 1.7-2.9 3.2-2.2 2.9-5.1 7.6-7.3 13.9-0.5 1.6-1 3.3-1.4 5-0.3 1.8-0.4 3.7-0.4 5.6 0.1 3.9 0.8 8.1 2.1 12.3 2.7 8.4 7.3 17.1 13.7 25 6.4 7.9 14.1 14.1 21.6 18.7 7.5 4.6 15 7.5 21.4 9.3 3.3 0.9 6.3 1.4 8.9 1.9 2.6 0.3 4.9 0.6 6.7 0.8q2.7 0.1 4.4 0.1 1.4 0.1 1.5 0.1z"/>
						</g>
					</g>
					<g id="&lt;Group&gt;">
						<g id="&lt;Group&gt;">
							<path id="&lt;Path&gt;" class="s2" d="m187.5 314.4q0 0.1-1.1-0.1-1.2-0.1-3-0.3c-2.7-0.3-6.5-0.7-11.2-0.6-4.7 0.1-10.4 0.6-16.2 2.8-5.7 2.2-11.7 6.1-15.4 12.3-3.6 6.1-4.3 13.5-2 19.1 2.4 5.8 7.2 9.3 11.4 11.2 4.3 1.9 8.1 2.6 10.7 3 2.6 0.4 4.1 0.5 4.1 0.6q-0.1 0-1.1 0-1.1 0-3.1-0.2c-2.6-0.3-6.5-0.8-10.9-2.7-2.2-1-4.5-2.3-6.7-4.2-2.1-1.9-4-4.3-5.3-7.3-2.4-6-1.8-13.7 2-20.1 3.8-6.4 10.1-10.4 16-12.6 6-2.2 11.7-2.7 16.5-2.6 4.8 0 8.6 0.5 11.2 0.9q2 0.3 3 0.5 1.1 0.2 1.1 0.3z"/>
						</g>
					</g>
					<g id="&lt;Group&gt;">
						<g id="&lt;Group&gt;">
							<path id="&lt;Path&gt;" class="s2" d="m355.9 239.6q0 0-0.5-0.3-0.5-0.4-1.4-1.1c-1.2-0.9-2.9-2.3-5.2-4-4.7-3.3-11.8-7.9-21.8-10.4-5-1.3-10.6-2-16.6-2.1-6 0-12.5 0.6-19 2.4-6.4 1.9-13 4.8-19.1 9-6 4.1-11.4 9.7-15.8 16.1-1 1.4-1.9 2.9-2.7 4.3l-0.1 0.2h-0.3c-15.1-0.3-29.1 5.3-39.2 13.3-5.1 4-9.2 8.7-12.4 13.5-3.1 4.7-5.4 9.6-6.9 14.3-3.2 9.2-3.5 17.2-3.3 22.7 0.1 1.3 0.2 2.5 0.3 3.6q0.1 1.5 0.3 2.6 0.1 1 0.2 1.6 0.1 0.6 0.1 0.6c0 0-0.9-3-1.3-8.4-0.3-5.5-0.1-13.6 3-23 1.5-4.7 3.7-9.6 6.9-14.5 3.2-4.8 7.4-9.6 12.5-13.7 10.2-8.2 24.5-13.9 39.8-13.6l-0.5 0.2c0.9-1.3 1.8-2.8 2.7-4.3 4.5-6.5 10-12.1 16.1-16.4 6.2-4.2 12.9-7.1 19.5-9 6.6-1.8 13.2-2.4 19.2-2.3 6.1 0.1 11.8 0.8 16.8 2.1 10.1 2.7 17.2 7.4 21.8 10.9 2.3 1.7 4 3.2 5.2 4.1q0.8 0.7 1.3 1.2 0.4 0.4 0.4 0.4z"/>
						</g>
					</g>
					<g id="&lt;Group&gt;">
						<g id="&lt;Group&gt;">
							<path id="&lt;Path&gt;" class="s2" d="m229.7 282.1q0.1-0.1 0.9 0 0.9 0.1 2.6 0.5c2.2 0.5 5.3 1.5 8.7 3.7 3.4 2.1 7.1 5.4 9.8 10.1 2.8 4.5 4.3 10.5 3.9 16.7-0.4 6.1-2.6 11.9-5.8 16.1-3.3 4.3-7.3 7.1-10.9 8.9-3.7 1.7-6.9 2.4-9.1 2.6q-1.7 0.2-2.6 0.2-0.9 0-0.9-0.1c0-0.1 1.2-0.1 3.4-0.5 2.2-0.3 5.3-1.1 8.8-2.9 3.5-1.8 7.4-4.6 10.5-8.8 3.1-4.1 5.2-9.6 5.6-15.6 0.3-6-1.1-11.7-3.7-16.2-2.6-4.5-6.1-7.7-9.4-9.9-3.3-2.2-6.3-3.3-8.4-4-2.1-0.6-3.4-0.7-3.4-0.8z"/>
						</g>
					</g>
					<g id="&lt;Group&gt;">
						<g id="&lt;Group&gt;">
							<path id="&lt;Path&gt;" class="s2" d="m294.9 264.2c0-0.1 0.4 0.8 0.8 2.4 0.5 1.6 0.9 4 1.1 6.9 0.3 5.9-1.2 14.5-6.8 21.9-5.5 7.3-13.4 11.2-19.1 12.5-2.9 0.8-5.3 1-6.9 1-1.7 0-2.6-0.1-2.6-0.2 0-0.2 3.7 0.1 9.3-1.5 5.6-1.5 13.1-5.3 18.5-12.4 5.4-7.2 6.9-15.5 6.8-21.3 0-5.8-1.4-9.3-1.1-9.3z"/>
						</g>
					</g>
					<g id="&lt;Group&gt;">
						<g id="&lt;Group&gt;">
							<path id="&lt;Path&gt;" class="s2" d="m340.3 354.6c-0.1 0 0.1-1.1 0.2-3.2 0.2-2.1 0.3-5.1-0.1-8.8-0.5-7.4-3.2-17.6-9.8-26.8-6.7-9.2-15.7-14.9-22.5-17.7-3.5-1.5-6.4-2.3-8.4-2.8-2-0.5-3.2-0.7-3.1-0.8q0-0.1 0.8 0c0.5 0.1 1.4 0.2 2.4 0.4 2.1 0.4 5 1.1 8.5 2.5 7 2.7 16.3 8.4 23.1 17.8 6.8 9.3 9.4 19.9 9.8 27.3 0.2 3.8 0 6.9-0.3 8.9-0.1 1.1-0.3 1.9-0.4 2.4q-0.1 0.8-0.2 0.8z"/>
						</g>
					</g>
					<g id="&lt;Group&gt;">
						<g id="&lt;Group&gt;">
							<path id="&lt;Path&gt;" class="s2" d="m318.5 246.7c0.1 0 0.9 0.4 2.4 1.3 1.4 0.9 3.4 2.5 5.6 4.7 2.1 2.3 4.3 5.3 6 9.1 1.7 3.7 2.8 8.2 2.9 13 0 4.8-1 9.3-2.7 13-1.6 3.8-3.7 6.9-5.8 9.2-2.1 2.3-4.1 3.9-5.5 4.9-1.5 0.9-2.3 1.3-2.3 1.3-0.2-0.2 3.3-2 7.2-6.7 4-4.5 8.1-12.4 8.1-21.7-0.1-9.3-4.5-17.1-8.5-21.6-4-4.6-7.5-6.3-7.4-6.5z"/>
						</g>
					</g>
					<g id="&lt;Group&gt;">
						<g id="&lt;Group&gt;">
							<path id="&lt;Path&gt;" class="s2" d="m346.8 248.1c0.2 0.1-0.9 5.5-4.4 11.4-3.4 5.9-7.6 9.5-7.8 9.3-0.2-0.2 3.6-4.1 6.9-9.8 3.4-5.7 5-11 5.3-10.9z"/>
						</g>
					</g>
					<g id="&lt;Group&gt;">
						<g id="&lt;Group&gt;">
							<path id="&lt;Path&gt;" class="s2" d="m385.2 177.9q0.1 0 1.7 0.7 0.8 0.5 1.9 1 1.1 0.7 2.5 1.5c3.7 2.4 8.9 6.5 13.6 13 4.7 6.3 9 15.2 10.1 25.7 1.2 10.5-1.5 22.5-8.1 32.8-6.8 10.5-16.8 18.1-27 21.5l0.3-0.6c4.6 14.9 4.6 28.4 3.4 37.6-0.5 4.7-1.3 8.3-1.9 10.7-0.3 1.2-0.6 2.1-0.8 2.8q-0.3 0.9-0.3 0.9-0.1 0 0.1-1 0.3-1 0.7-2.8c0.5-2.4 1.2-6 1.6-10.6 1-9.2 0.9-22.6-3.7-37.3l-0.1-0.5 0.4-0.1c10-3.4 19.8-10.8 26.5-21.2 6.4-10.1 9.1-21.8 8-32.1-1.1-10.3-5.3-19.1-9.8-25.4-4.6-6.4-9.6-10.5-13.2-13q-1.4-0.9-2.5-1.6-1-0.6-1.8-1.1-1.6-0.8-1.6-0.9z"/>
						</g>
					</g>
					<g id="&lt;Group&gt;">
						<g id="&lt;Group&gt;">
							<path id="&lt;Path&gt;" class="s2" d="m351 184.6c0 0 0.7 0.4 1.8 1.3 1.2 1 2.6 2.5 4.1 4.7 1.5 2.2 2.8 5.1 3.6 8.5 0.8 3.4 1 7.3 0.1 11.3-0.9 3.9-2.8 7.4-5 10.1-2.3 2.7-4.8 4.6-7 6-2.3 1.3-4.3 2-5.8 2.4-1.4 0.3-2.2 0.4-2.2 0.3-0.1-0.2 3.2-0.6 7.6-3.4 4.3-2.6 9.6-8 11.4-15.7 1.7-7.6-0.6-14.8-3.3-19.1-2.7-4.4-5.5-6.2-5.3-6.4z"/>
						</g>
					</g>
					<g id="&lt;Group&gt;">
						<g id="&lt;Group&gt;">
							<path id="&lt;Path&gt;" class="s2" d="m519.1 206.2q-0.1 0.1-1.7 0.2c-1 0.1-2.6 0.2-4.6 0.4-4 0.5-9.9 1.5-16.7 3.8-3.4 1.2-7.1 2.7-10.8 4.8-3.7 2-7.4 4.7-11.2 7.6-7.5 5.9-15.2 13.4-20.7 22.9-5.4 9.7-10.2 19-14.2 27.8-3.9 8.7-6.8 16.9-8.6 23.9-1.9 7-2.9 12.8-3.3 16.8-0.3 2-0.4 3.6-0.5 4.6q-0.1 1.6-0.2 1.6-0.1 0 0-1.6c0.1-1.1 0-2.6 0.3-4.7 0.3-4 1.2-9.9 2.9-16.9 1.8-7.1 4.7-15.3 8.6-24.1 3.9-8.8 8.7-18.2 14.1-27.9 5.6-9.7 13.4-17.2 21-23.1 3.9-3 7.6-5.6 11.4-7.7 3.8-2.1 7.5-3.6 11-4.7 6.9-2.3 12.8-3.1 16.8-3.5 2.1-0.2 3.6-0.2 4.7-0.2q1.6 0 1.7 0z"/>
						</g>
					</g>
					<g id="&lt;Group&gt;">
						<g id="&lt;Group&gt;">
							<path id="&lt;Path&gt;" class="s2" d="m455.2 190.3c0 0.2-2.8 0.1-7.2 0.9-2.2 0.4-4.8 1.1-7.6 2.1-2.7 1-5.7 2.4-8.6 4.1-2.9 1.8-5.5 3.8-7.7 5.8-2.1 2-3.9 3.9-5.3 5.7-2.7 3.6-4 6.1-4.2 6 0-0.1 0.2-0.7 0.8-1.9 0.3-0.5 0.6-1.2 1.1-2 0.5-0.7 1-1.6 1.7-2.5 1.3-1.9 3.1-3.9 5.3-6 2.2-2.1 4.8-4.2 7.7-6 3-1.8 6.1-3.1 8.9-4.1 2.9-1 5.5-1.6 7.8-1.9 1.1-0.2 2.1-0.2 3-0.3 0.9-0.1 1.7-0.1 2.3-0.1 1.3 0.1 2 0.1 2 0.2z"/>
						</g>
					</g>
					<g id="&lt;Group&gt;">
						<g id="&lt;Group&gt;">
							<path id="&lt;Path&gt;" class="s2" d="m472.5 325.8c0-0.1 0.8-0.2 2.2-0.7 1.4-0.5 3.3-1.6 5.1-3.5 1.8-1.9 3.3-4.7 4.4-8 1.1-3.4 1.9-7.2 2.7-11.1 1.6-8.1 2.2-15.4 2.4-20.8 0.1-2.6 0.1-4.8 0.1-6.3 0-1.5 0-2.3 0.1-2.3 0.1-0.1 0.2 0.8 0.3 2.3 0.1 1.5 0.2 3.6 0.2 6.3 0 5.4-0.4 12.9-2 20.9-0.8 4.1-1.7 7.9-2.9 11.3-1.2 3.4-2.8 6.3-4.8 8.2-1.9 2-4 3-5.5 3.4-0.7 0.2-1.3 0.3-1.7 0.3q-0.6 0-0.6 0z"/>
						</g>
					</g>
					<g id="&lt;Group&gt;">
						<g id="&lt;Group&gt;">
							<path id="&lt;Path&gt;" class="s2" d="m533.8 355.8c-0.3 0 2.1-4.2 2-11.6 0-3.6-0.9-7.9-2.7-12.3-1.9-4.5-4.9-8.9-9-12.6-4.2-3.7-8.9-6.3-13.5-7.9-4.5-1.7-8.8-2.6-12.4-3-3.7-0.4-6.6-0.5-8.7-0.5-2 0-3.2 0.1-3.2 0q0-0.1 0.8-0.2c0.6 0 1.4-0.2 2.4-0.2 2.1-0.1 5.1-0.2 8.8 0.2 3.6 0.3 8 1.1 12.7 2.8 4.6 1.6 9.5 4.2 13.8 8 4.2 3.8 7.3 8.4 9.2 13 1.8 4.6 2.6 9 2.5 12.7 0 3.8-0.7 6.8-1.4 8.7-0.3 1-0.7 1.7-0.9 2.2q-0.4 0.7-0.4 0.7z"/>
						</g>
					</g>
					<g id="&lt;Group&gt;">
						<g id="&lt;Group&gt;">
							<path id="&lt;Path&gt;" class="s2" d="m486.7 248.6q0-0.1 1.2-0.5 1.3-0.4 3.7-0.9c3.2-0.7 7.9-1.4 13.8-1.2 5.8 0.1 12.9 1.2 20.1 4.3 7.1 3.1 14.2 8.5 19.3 16 5.1 7.4 7.6 16.1 7.1 23.9-0.5 7.9-3.6 14.5-7.2 19.2-3.5 4.7-7.5 7.6-10.4 9.1q-2.3 1.1-3.5 1.4-1.2 0.5-1.3 0.4 0 0 1.2-0.6 1.2-0.4 3.4-1.6c2.8-1.6 6.6-4.5 10.1-9.1 3.3-4.7 6.3-11.2 6.7-18.8 0.5-7.6-2-16.1-6.9-23.4-5.1-7.2-11.9-12.6-18.9-15.6-7-3.1-14-4.2-19.7-4.5-5.8-0.2-10.5 0.4-13.7 0.9-3.3 0.6-5 1.1-5 1z"/>
						</g>
					</g>
					<g id="&lt;Group&gt;">
						<g id="&lt;Group&gt;">
							<path id="&lt;Path&gt;" class="s2" d="m547.3 268.7c-0.2-0.1 0.6-3.1 0.7-8.2 0.1-1.3 0.1-2.7 0-4.1-0.1-1.5-0.4-3.1-0.6-4.7-0.6-3.3-1.5-6.9-3-10.5-1.5-3.5-3.4-6.7-5.3-9.4-1-1.4-2-2.6-3-3.7-0.9-1.2-2-2.1-2.9-3-3.7-3.4-6.5-5-6.3-5.2 0-0.1 0.7 0.3 1.9 1 0.7 0.4 1.4 0.9 2.2 1.5 0.8 0.6 1.8 1.3 2.7 2.2 1 0.8 2 1.8 3 2.9 1.1 1.1 2.1 2.4 3.2 3.7 2 2.8 3.9 6 5.5 9.6 1.5 3.7 2.4 7.3 3 10.7 0.2 1.7 0.4 3.3 0.4 4.8 0.1 1.5 0.1 2.9 0 4.2 0 1.3-0.3 2.5-0.4 3.5-0.1 1-0.3 1.9-0.5 2.6-0.3 1.4-0.5 2.1-0.6 2.1z"/>
						</g>
					</g>
					<g id="&lt;Group&gt;">
						<g id="&lt;Group&gt;">
							<path id="&lt;Path&gt;" class="s2" d="m613.1 271.6c0 0.2-3.1-0.4-8.2-0.3-2.5 0-5.4 0.3-8.7 0.9-3.3 0.6-6.8 1.6-10.3 3-3.6 1.5-6.8 3.3-9.5 5.1-2.7 1.9-5.1 3.8-6.9 5.5-3.6 3.5-5.4 6.1-5.5 6-0.1 0 0.3-0.7 1.1-1.9 0.4-0.5 1-1.3 1.6-2 0.7-0.8 1.4-1.7 2.3-2.6 1.8-1.8 4.1-3.8 6.8-5.8 2.8-1.9 6.1-3.7 9.7-5.2 3.6-1.5 7.2-2.5 10.5-3.1 3.4-0.5 6.4-0.7 9-0.6 1.2-0.1 2.4 0.1 3.4 0.2 1 0 1.9 0.2 2.6 0.3 1.4 0.3 2.1 0.5 2.1 0.5z"/>
						</g>
					</g>
					<g id="&lt;Group&gt;">
						<g id="&lt;Group&gt;">
							<path id="&lt;Path&gt;" class="s2" d="m652.5 442.2q0.1 0 0.5 0.9c0.2 0.7 0.5 1.6 0.8 2.9 0.6 2.6 1.1 6.4 0.7 11.1-0.3 4.6-1.6 10.2-4.2 15.8-2.6 5.7-6.4 11.4-11.2 16.8-4.8 5.3-10.4 9.4-16 12-5.7 2.7-11.3 3.9-15.9 4.3-4.7 0.5-8.5 0.3-11.1 0.3q-1.9-0.1-3 0-1 0.1-1 0 0 0 1-0.2 1.1-0.2 3-0.2c2.6-0.1 6.4 0 11-0.6 4.6-0.5 10.1-1.7 15.5-4.4 5.6-2.7 11-6.7 15.8-11.9 4.7-5.3 8.5-10.9 11-16.5 2.6-5.5 4-10.9 4.4-15.5 0.5-4.6 0.1-8.4-0.4-10.9-0.2-1.3-0.5-2.2-0.6-2.9q-0.3-1-0.3-1z"/>
						</g>
					</g>
					<g id="&lt;Group&gt;" style="opacity: .3">
						<g id="&lt;Group&gt;">
							<path id="&lt;Path&gt;" class="s5" d="m487 382.2c-42.8-10.4-87.5-3.1-126.1 18-18.8-3.4-37-7.1-56-4.4-18.9 2.7-36.6 15.2-49.4 29.4-12.8 14.2-20.3 31.5-18.7 48.9l-1.9-2.8c-5.7-16.1-2.1-34.6 7.5-48.7 9.6-14 24.7-23.9 40.8-29.2 16.2-5.3 33.6-6.4 50.6-5.5 7.5 0.4 15.2 1.1 22.5-0.8 5.9-1.6 11.1-4.8 16.5-7.7 30.4-16 67.6-18.9 100.1-7.7 6.5-6.2 14.3-11 22.8-13.9-8.5 4.3-12.5 15.7-8.7 24.4z"/>
						</g>
					</g>
					<g id="&lt;Group&gt;" style="opacity: .3">
						<g id="&lt;Group&gt;">
							<path id="&lt;Path&gt;" class="s5" d="m537.1 424.5c-10.6 12.5-25.5 20.6-41.1 25.6-15.6 5-31.9 7-48.1 8.9q-22.1 2.7-44.1 5.4c-17.6 2.2-36 4.3-52.6-1.8-8.5 8.7-20.7 13.5-32.8 12.9-12.1-0.5-26.3-5.5-33.9-14.9 15.4 5.1 25.5 11.6 58.7-5.7 23 7 48.6 2.7 68.6-10.6 43 11.8 88.4 5.3 125.3-19.8z"/>
						</g>
					</g>
					<g id="&lt;Group&gt;" style="opacity: .3">
						<g id="&lt;Group&gt;">
							<path id="&lt;Path&gt;" class="s5" d="m254.9 306c16.1 4.6 35.1-5 40.9-20.7 1.5 6.7-0.1 14.1-4.4 19.5-4.2 5.4-11 8.8-17.8 9-2.1 0-4.5-0.1-6.1 1.2-1.5 1.2-1.9 3.4-2.4 5.3-1.9 7.1-6.8 13.5-13.3 17-6.5 3.6-16.8 5.7-23.8 3.4 22.2-4.2 26.4-20.8 26.9-34.7z"/>
						</g>
					</g>
					<g id="&lt;Group&gt;" style="opacity: .3">
						<g id="&lt;Group&gt;">
							<path id="&lt;Path&gt;" class="s5" d="m368.6 254.9c-0.1-3.2-21-25.2-35.7-29.9-14.6-4.6-31.3-4.1-46.1 0.1-14.7 4.3-25.9 13.7-31.8 27.9-17-0.8-40 9.9-50.8 22.9-10.9 13-15 29.8-11.7 50-9.6-16.9-8.5-36.8 0.1-53 5.1-9.8 14.2-17.2 24.3-21.6 10.1-4.5 21.2-6.3 32.3-6.6 11.7-18.5 31.8-31.5 53.5-34.5 21.7-3 43.3 5.9 56.4 23.5 6.8 9.2 10.2 14 9.5 21.2z"/>
						</g>
					</g>
					<g id="&lt;Group&gt;" style="opacity: .3">
						<g id="&lt;Group&gt;">
							<path id="&lt;Path&gt;" class="s5" d="m452.5 246.5c-16.1 21.7-25.9 67.5-25.9 67.5-2.2-27-0.4-52.5 15.1-74.7 15.6-22.2 43.1-37.1 69.9-33.2-6.4-3.9-39.4 14-59.1 40.4z"/>
						</g>
					</g>
					<g id="&lt;Group&gt;" style="opacity: .3">
						<g id="&lt;Group&gt;">
							<path id="&lt;Path&gt;" class="s5" d="m489.9 279.8c3 6.6 4 14.1 3.1 21.3 13.9-0.1 26.6 8.9 34.2 20.5-5.1-5.2-12.5-9.6-19.9-11.8-7.5-2.2-14.2-3.3-21-1 1.7-10.4 4.3-20.4 3.4-29.7"/>
						</g>
					</g>
					<g id="&lt;Group&gt;" style="opacity: .3">
						<g id="&lt;Group&gt;">
							<path id="&lt;Path&gt;" class="s5" d="m672.9 425.5c-2.7 5.4-6.6 10.3-8.3 16.2-2 6.6-1.1 13.7-1.9 20.5-2.1 16.5-19.8 34.4-36.2 37.2 27.3-20.3 30.7-40.8 26-57.2 15.5-21.1 17.7-50.2 2.7-72 9.4 5.1 16.7 13.9 19.9 24.1 3.3 10.2 2.5 21.6-2.2 31.2z"/>
						</g>
					</g>
					<g id="&lt;Group&gt;">
						<g id="&lt;Group&gt;" style="opacity: .3">
							<g id="&lt;Group&gt;">
								<path id="&lt;Path&gt;" class="s5" d="m136.8 339.8q-0.2 0.6-0.3 1.3-0.1-0.4-0.2-0.8z"/>
							</g>
						</g>
						<g id="&lt;Group&gt;" style="opacity: .3">
							<g id="&lt;Group&gt;">
								<path id="&lt;Path&gt;" class="s5" d="m197.5 446.7c-16.9-2.5-32.6-12.3-42.2-26.4-9.6-14.1-12.9-32.3-9-48.9-9.1-6.5-12.1-19.4-9.8-30.3 4 16 16 23 30.1 21.6-5.8 10.7-11.9 22.8-9 34.7 1.3 5.1 4 9.6 6.9 13.9 9.1 13.3 20.3 25.3 33 35.4z"/>
							</g>
						</g>
					</g>
					<g id="&lt;Group&gt;">
						<g id="&lt;Group&gt;">
							<path id="&lt;Path&gt;" class="s4" d="m600.7 542.3c0.1 27.6-22.7 48.3-70.9 57.8-32.8 6.5-74.5 5.7-83.4-21.9-6.7-21.2 13.7-38.5 15.3-41.4 0 0 138.9-16.7 139 5.5z"/>
						</g>
						<g id="&lt;Group&gt;">
							<g id="&lt;Group&gt;">
								<path id="&lt;Path&gt;" class="s2" d="m600.7 542.3q0 0-1.6-0.2-1.7-0.3-4.6-0.8c-2-0.4-4.4-0.8-7.3-1.3-2.8-0.4-6-0.9-9.6-1.3-7.2-1-15.8-1.7-25.4-2.3-9.5-0.6-20-0.8-31.1-0.8-22.1 0-42.1 1.2-56.6 2-7.1 0.5-12.9 0.8-17.1 1.1q-2.9 0.1-4.7 0.2-1.6 0.1-1.6 0.1 0-0.1 1.6-0.3 1.8-0.1 4.7-0.4c4-0.4 9.9-0.9 17.1-1.4 14.4-1.1 34.5-2.3 56.6-2.4 11.1 0 21.6 0.3 31.2 0.9 9.6 0.7 18.2 1.5 25.3 2.6 3.6 0.4 6.9 1 9.7 1.5 2.9 0.4 5.3 0.9 7.3 1.4q2.8 0.6 4.5 1 1.6 0.3 1.6 0.4z"/>
							</g>
						</g>
						<g id="&lt;Group&gt;">
							<g id="&lt;Group&gt;" style="opacity: .3">
								<g id="&lt;Group&gt;">
									<path id="&lt;Path&gt;" class="s5" d="m450.3 538.5q0 0 0 0-0.1 0-0.3 0z"/>
								</g>
							</g>
							<g id="&lt;Group&gt;" style="opacity: .3">
								<g id="&lt;Group&gt;">
									<path id="&lt;Path&gt;" class="s5" d="m600.7 542.7c-48.8-11.9-100.2-6.7-150.4-4.2 53.1 4.7 103.8 4.6 150.4 4.2z"/>
								</g>
							</g>
						</g>
					</g>
					<g id="&lt;Group&gt;" style="opacity: .3">
						<g id="&lt;Group&gt;">
							<path id="&lt;Path&gt;" class="s5" d="m517.3 482.9c-50.3-3.1-101.2 3.8-148.8 20.1-1.3 8.5-9.2 14.7-17.5 16.8-8.3 2-17.1 0.5-25.5-1 7.1 0.9 14.4-0.2 20.9-3.2 5.6-3.1 8.1-8.4 9.3-14.7 7.6-2.9 23.1-7.7 31.5-10.2 41.9-12.4 87.2-16.4 130.1-7.8z"/>
						</g>
					</g>
					<g id="&lt;Group&gt;" style="opacity: .3">
						<g id="&lt;Group&gt;">
							<path id="&lt;Path&gt;" class="s5" d="m550.9 294.3c2.8-10.8-4.3-23.2-4.3-23.2 5.6-21.4-3.3-34.3-6.1-37.5 11.6 5 18.4 19 15.2 31.2-0.5 2.1-1.3 4.2-1.2 6.3 0.1 2.1 1 4.1 1.7 6.1 4.3 11.9-1.2 26.6-12.3 32.7q-0.2 0.1-0.4 0.2"/>
						</g>
					</g>
					<g id="&lt;Group&gt;" style="opacity: .3">
						<g id="&lt;Group&gt;">
							<path id="&lt;Path&gt;" class="s5" d="m341 347.9c0.5-14.6-6.9-36.9-22.7-44.7 6.1-3.3 9.6-6.9 12.6-13.1 3-6.3 3-14.8 3.9-21.7 4.9 5.4 7.4 12.8 6.7 20.1-0.6 7.2-4.5 14-10.3 18.4 5.7 6.1 10.9 12.9 13.2 20.9 2.3 7.9 2.2 19.9-3.9 25.5z"/>
						</g>
					</g>
				</g>
				<g id="&lt;Group&gt;">
					<g id="&lt;Group&gt;">
						<path id="&lt;Path&gt;" class="s2" d="m605.6 453.1c-0.3 0 1.5-4.2 0.3-11.1-0.6-3.3-1.9-7.2-4.3-11-2.5-3.8-6-7.4-10.4-10.4-4.3-2.9-8.9-4.9-13.2-6.4-4.3-1.5-8.3-2.5-11.7-3.1-3.4-0.7-6.1-1.1-8.1-1.4-1.9-0.3-2.9-0.5-2.9-0.5 0-0.1 1.1 0 3 0.1 1.9 0.2 4.7 0.5 8.1 1.1 3.5 0.5 7.5 1.5 11.9 2.9 4.4 1.4 9.1 3.5 13.5 6.5 4.4 3 8.1 6.7 10.6 10.6 2.5 4 3.7 8.1 4.3 11.5 0.5 3.5 0.2 6.4-0.2 8.3q-0.3 1.4-0.6 2.2-0.2 0.7-0.3 0.7z"/>
					</g>
				</g>
				<g id="&lt;Group&gt;" style="opacity: .3">
					<g id="&lt;Group&gt;">
						<path id="&lt;Path&gt;" class="s5" d="m599.5 427.9c-11.6-11.3-28.2-17.3-44.5-18.2 12.3-12.3 23.2-26.9 30.1-42.8 0.9 11.4-0.8 22.9-4.9 33.6 11.1 4.3 19 15.6 19.3 27.4z"/>
					</g>
				</g>
			</g>
			<g id="&lt;Group&gt;">
				<g id="&lt;Group&gt;">
					<path id="&lt;Path&gt;" class="s6" d="m95 530.5c-21 0-33.6-3.3-35.9-10.4-5.3-16.5 44.5-44.4 87.2-64.9l0.8 1.8c-58.4 28.1-89.8 50.9-86.1 62.5 8 25.1 174-4.4 362.5-64.5 188.5-60.1 340.9-132.1 332.9-157.2-3.7-11.7-43.1-12.1-108.1-0.9l-0.3-1.9c47.4-8.2 105-14.5 110.3 2.2 8.7 27-138.1 97.2-334.2 159.7-144.7 46.2-270 73.4-329.1 73.6z"/>
				</g>
				<g id="&lt;Group&gt;" style="opacity: .6">
					<path id="&lt;Path&gt;" class="s7" d="m95 530.5c-21 0-33.6-3.3-35.9-10.4-5.2-16.4 44.5-44.4 87.2-64.9l0.8 1.8c-58.4 28.1-89.8 50.9-86.1 62.5 8 25.2 174.1-4.4 362.5-64.5 188.5-60.1 340.9-132.1 332.9-157.2-3.7-11.7-43.1-12-108.1-0.9l-0.3-1.9c47.4-8.2 105-14.4 110.3 2.2 8.7 27-138.1 97.2-334.2 159.7-144.7 46.2-270 73.4-329.1 73.6z"/>
				</g>
			</g>
			<g id="&lt;Group&gt;">
				<g id="&lt;Group&gt;">
					<path id="&lt;Path&gt;" class="s7" d="m314.8 645.5c-4.1 0-7.5-3.3-7.5-7.5 0-4.1 3.3-7.4 7.4-7.4 4.2 0 7.5 3.3 7.5 7.4 0 4.1-3.3 7.4-7.4 7.5z"/>
				</g>
				<g id="&lt;Group&gt;">
					<path id="&lt;Path&gt;" class="s7" d="m648.9 567.8c-4.1 0-7.5-3.3-7.5-7.4 0-4.1 3.3-7.4 7.4-7.4 4.2-0.1 7.5 3.3 7.5 7.4 0 4.1-3.3 7.4-7.4 7.4z"/>
				</g>
				<g id="&lt;Group&gt;">
					<path id="&lt;Path&gt;" class="s7" d="m646.1 218.6c-2.7 0-4.9-2.2-4.9-4.9 0-2.7 2.2-4.9 4.9-4.9 2.7 0 4.9 2.2 4.9 4.9 0 2.7-2.1 4.9-4.9 4.9z"/>
				</g>
				<g id="&lt;Group&gt;">
					<path id="&lt;Path&gt;" class="s7" d="m632.7 622.7c-4.1 0.1-7.4-3.3-7.4-7.4 0-4.1 3.3-7.4 7.4-7.4 4.1 0 7.5 3.3 7.5 7.4 0 4.1-3.3 7.4-7.5 7.4z"/>
				</g>
				<g id="&lt;Group&gt;">
					<path id="&lt;Path&gt;" class="s7" d="m350.6 655.7c-7 0-12.6-5.6-12.6-12.5 0-7 5.5-12.6 12.5-12.6 6.9 0 12.5 5.6 12.6 12.5 0 6.9-5.6 12.5-12.5 12.6z"/>
				</g>
				<g id="&lt;Group&gt;">
					<path id="&lt;Path&gt;" class="s7" d="m731.4 598c-6.9 0-12.5-5.6-12.6-12.5 0-7 5.6-12.6 12.5-12.6 7 0 12.6 5.6 12.6 12.5 0 6.9-5.5 12.5-12.5 12.6z"/>
				</g>
				<g id="&lt;Group&gt;">
					<path id="&lt;Path&gt;" class="s7" d="m615.2 218.8c-4.5 0-8.3-3.6-8.3-8.2 0-4.6 3.7-8.3 8.3-8.3 4.6 0 8.3 3.6 8.3 8.2 0 4.6-3.7 8.3-8.3 8.3z"/>
				</g>
				<g id="&lt;Group&gt;">
					<g id="&lt;Group&gt;">
						<path id="&lt;Path&gt;" class="s7" d="m413.2 155.4c-6.6 0-11.9-5.3-11.9-11.8-0.1-6.6 5.2-11.9 11.8-11.9 6.5-0.1 11.9 5.2 11.9 11.8 0 6.5-5.3 11.9-11.8 11.9z"/>
					</g>
					<g id="&lt;Group&gt;">
						<path id="&lt;Path&gt;" class="s7" d="m69.6 431c-5.6 0-10.1-4.5-10.1-10.1-0.1-5.5 4.4-10 10-10.1 5.6 0 10.1 4.5 10.1 10.1 0 5.5-4.5 10.1-10 10.1z"/>
					</g>
					<g id="&lt;Group&gt;">
						<path id="&lt;Path&gt;" class="s7" d="m257.2 113.3c-5.5 0-10-4.5-10.1-10.1 0-5.5 4.5-10.1 10.1-10.1 5.5 0 10.1 4.5 10.1 10.1 0 5.5-4.5 10-10.1 10.1z"/>
					</g>
					<g id="&lt;Group&gt;">
						<path id="&lt;Path&gt;" class="s7" d="m367.4 149.6c-3.8 0-6.9-3-6.9-6.8 0-3.8 3-6.8 6.8-6.9 3.8 0 6.9 3.1 6.9 6.9 0 3.7-3.1 6.8-6.8 6.8z"/>
					</g>
					<g id="&lt;Group&gt;">
						<path id="&lt;Path&gt;" class="s7" d="m498.6 158.4c-3.8 0.1-6.9-3-6.9-6.8 0-3.7 3.1-6.8 6.9-6.8 3.7 0 6.8 3 6.8 6.8 0 3.8-3 6.8-6.8 6.8z"/>
					</g>
					<g id="&lt;Group&gt;">
						<path id="&lt;Path&gt;" class="s7" d="m235.3 139.1c-3.8 0-6.8-3.1-6.8-6.8-0.1-3.8 3-6.9 6.8-6.9 3.7 0 6.8 3 6.8 6.8 0 3.8-3 6.8-6.8 6.9z"/>
					</g>
					<g id="&lt;Group&gt;">
						<path id="&lt;Path&gt;" class="s7" d="m409 115c-1.9 0-3.4-1.5-3.4-3.4 0-1.9 1.5-3.4 3.4-3.4 1.9 0 3.4 1.5 3.4 3.4 0 1.9-1.5 3.4-3.4 3.4z"/>
					</g>
					<g id="&lt;Group&gt;">
						<path id="&lt;Path&gt;" class="s7" d="m337.8 79.4c-1.9 0-3.4-1.5-3.5-3.4 0-1.9 1.6-3.4 3.5-3.4 1.8-0.1 3.4 1.5 3.4 3.4 0 1.9-1.5 3.4-3.4 3.4z"/>
					</g>
					<g id="&lt;Group&gt;">
						<path id="&lt;Path&gt;" class="s7" d="m281.9 153.3c-1.9 0-3.4-1.5-3.5-3.4 0-1.9 1.6-3.4 3.5-3.4 1.8 0 3.4 1.5 3.4 3.4 0 1.9-1.5 3.4-3.4 3.4z"/>
					</g>
				</g>
				<g id="&lt;Group&gt;">
					<path id="&lt;Path&gt;" class="s7" d="m743.3 400.3c-3.4 0-6.3-2.7-6.3-6.2 0-3.5 2.8-6.3 6.3-6.3 3.5 0 6.3 2.8 6.3 6.3 0 3.4-2.8 6.2-6.3 6.2z"/>
				</g>
				<g id="&lt;Group&gt;">
					<g id="&lt;Group&gt;">
						<path id="&lt;Path&gt;" class="s7" d="m717.7 430.6c-4.1 0-7.5-3.3-7.5-7.4 0-4.1 3.3-7.5 7.4-7.5 4.2 0 7.5 3.3 7.5 7.4 0 4.2-3.3 7.5-7.4 7.5z"/>
					</g>
					<g id="&lt;Group&gt;">
						<path id="&lt;Path&gt;" class="s6" d="m711.4 367.6c-1.1-1.4-0.9-3.3 0.5-4.4 1.4-1.1 3.3-0.8 4.4 0.5 1.1 1.4 0.8 3.4-0.5 4.4-1.4 1.1-3.4 0.9-4.4-0.5z"/>
					</g>
				</g>
				<g id="&lt;Group&gt;">
					<path id="&lt;Path&gt;" class="s6" d="m612.8 237c-1.4 0-2.5-1.1-2.5-2.5 0-1.4 1.1-2.5 2.5-2.6 1.4 0 2.5 1.2 2.5 2.6 0 1.3-1.1 2.5-2.5 2.5z"/>
				</g>
				<g id="&lt;Group&gt;">
					<path id="&lt;Path&gt;" class="s6" d="m680.5 551.1c-2.1 0-3.8-1.7-3.8-3.8 0-2.1 1.7-3.8 3.8-3.8 2.1 0 3.8 1.7 3.8 3.8 0 2.1-1.7 3.8-3.8 3.8z"/>
				</g>
				<g id="&lt;Group&gt;">
					<path id="&lt;Path&gt;" class="s7" d="m262 576.9c-6.1 0-11-4.9-11-10.9 0-6.1 4.8-11 10.9-11 6 0 10.9 4.9 11 10.9 0 6-4.9 10.9-10.9 11z"/>
				</g>
				<g id="&lt;Group&gt;">
					<path id="&lt;Path&gt;" class="s7" d="m246.9 598.7c-2.3 0-4.1-1.8-4.1-4.1 0-2.3 1.8-4.1 4.1-4.1 2.3-0.1 4.2 1.8 4.2 4.1 0 2.3-1.9 4.1-4.2 4.1z"/>
				</g>
			</g>
		</g>
	</g>
	<g id="Character 2">
	</g>
	<g id="Character 1">
		<g id="&lt;Group&gt;">
			<g id="&lt;Group&gt;">
			</g>
			<g id="&lt;Group&gt;">
				<g id="&lt;Group&gt;">
					<g id="&lt;Group&gt;">
						<g id="&lt;Group&gt;">
						</g>
					</g>
				</g>
				<g id="&lt;Group&gt;">
					<g id="&lt;Group&gt;">
						<g id="&lt;Group&gt;">
							<g id="&lt;Group&gt;">
								<g id="&lt;Group&gt;">
									<path id="&lt;Path&gt;" class="s2" d="m-98.2 410.9c0-0.1 1.1-0.3 3-0.6 1.9-0.2 4.6-0.4 7.4 0.9 2.7 1.1 4.6 3.2 5.5 4.9 0.9 1.7 1 2.9 0.9 2.9-0.1 0-0.4-1.1-1.4-2.7-1-1.5-2.7-3.4-5.3-4.5-2.6-1.1-5.2-1-7-1-1.9 0.1-3.1 0.2-3.1 0.1z"/>
								</g>
							</g>
						</g>
					</g>
				</g>
				<g id="&lt;Group&gt;">
					<g id="&lt;Group&gt;">
						<g id="&lt;Group&gt;">
							<g id="&lt;Group&gt;">
								<g id="&lt;Group&gt;">
									<path id="&lt;Path&gt;" class="s2" d="m-96.3 403.4c0 0 0.3-0.3 0.8-0.6 0.6-0.3 1.5-0.7 2.7-1 2.3-0.6 5.8-0.6 9.1 1.2 3.3 1.8 5.1 4.8 5.8 7 0.4 1.1 0.5 2 0.5 2.7 0 0.6 0 1-0.1 1-0.1 0-0.1-1.4-0.9-3.6-0.8-2.1-2.6-4.8-5.6-6.5-3.1-1.7-6.5-1.7-8.7-1.3-2.3 0.5-3.5 1.2-3.6 1.1z"/>
								</g>
							</g>
						</g>
					</g>
				</g>
				<g id="&lt;Group&gt;">
					<g id="&lt;Group&gt;">
						<g id="&lt;Group&gt;">
							<g id="&lt;Group&gt;">
								<g id="&lt;Group&gt;">
									<path id="&lt;Path&gt;" class="s2" d="m-97.4 394.1c0-0.1 1.4 0.1 3.8-0.1 1.2-0.1 2.6-0.2 4.1-0.3 1.6 0 3.4 0 5.2 0.6 1.8 0.6 3.2 1.7 4.3 2.8 1 1.2 1.7 2.5 2.3 3.5 1 2.1 1.3 3.5 1.2 3.6-0.1 0-0.6-1.3-1.7-3.4-0.6-0.9-1.3-2.1-2.3-3.2-1-1.1-2.4-2.1-4.1-2.6-1.6-0.6-3.3-0.6-4.8-0.6q-2.3 0.1-4.2 0.1c-2.4 0.1-3.8-0.3-3.8-0.4z"/>
								</g>
							</g>
						</g>
					</g>
				</g>
			</g>
		</g>
	</g>
</svg>