<svg version="1.2" xmlns="http://www.w3.org/2000/svg" viewBox="0 0 1130 720" width="754" height="336">
	<defs>
		<linearGradient id="P" gradientUnits="userSpaceOnUse" />
		<linearGradient id="g1" x1="712.3" y1="641.4" x2="761.3" y2="545.1" href="#P">
			<stop stop-color="#fff" />
			<stop offset="1" stop-color="#2d3378" />
		</linearGradient>
		<linearGradient id="g2" x1="1012" y1="419.8" x2="994.7" y2="336.7" href="#P">
			<stop stop-color="#fff" />
			<stop offset="1" stop-color="#2d3378" />
		</linearGradient>
		<linearGradient id="g3" x1="443.7" y1="672.5" x2="394.7" y2="576.3" href="#P">
			<stop stop-color="#fff" />
			<stop offset="1" stop-color="#2d3378" />
		</linearGradient>
		<linearGradient id="g4" x1="120" y1="432" x2="130.5" y2="336.1" href="#P">
			<stop stop-color="#fff" />
			<stop offset="1" stop-color="#2d3378" />
		</linearGradient>
		<linearGradient id="g5" x1="431.5" y1="209.7" x2="492.1" y2="253" href="#P">
			<stop stop-color="#fff" />
			<stop offset="1" stop-color="#3a3f78" />
		</linearGradient>
	</defs>
	<style>
		.a {
			fill: none;
			stroke: #fe9700;
			stroke-width: 4
		}

		.b {
			fill: none;
			stroke: #25c5d9;
			stroke-width: 6
		}

		.c {
			fill: none;
			stroke: #42a4f5;
			stroke-width: 12
		}

		.d {
			fill: #db172a;
			stroke: #eb407a;
			stroke-width: 10
		}

		.e {
			fill: none;
			stroke: #673bb6;
			stroke-width: 2
		}

		.f {
			fill: #fff;
			stroke: #673bb6;
			stroke-width: 2
		}

		.g {
			fill: #fe9700
		}

		.h {
			fill: #fff;
			stroke: #eb407a;
			stroke-width: 2
		}

		.i {
			fill: #fff;
			stroke: #fe9700;
			stroke-width: 3
		}

		.j {
			fill: #fff;
			stroke: #42a4f5;
			stroke-width: 2.5
		}

		.k {
			fill: #fff;
			stroke: #25c5d9;
			stroke-width: 3.2
		}

		.l {
			mix-blend-mode: multiply;
			fill: url(#g1)
		}

		.m {
			mix-blend-mode: multiply;
			fill: url(#g2)
		}

		.n {
			mix-blend-mode: multiply;
			fill: url(#g3)
		}

		.o {
			mix-blend-mode: multiply;
			fill: url(#g4)
		}

		.p {
			mix-blend-mode: multiply;
			fill: url(#g5)
		}

		.q {
			fill: #d8dbe8
		}

		.r {
			fill: #dce7ff
		}

		.s {
			fill: none;
			stroke: #474a54;
			stroke-linecap: round;
			stroke-linejoin: round;
			stroke-width: 2
		}
	</style>
	<path class="a" d="m396 254.9c-19.4-30.9-30.6-67.5-30.6-106.7" />
	<path class="b" d="m485.1 331.9c-36.8-16.3-67.8-43.3-89.1-77" />
	<path class="c" d="m648 331.4c-25 11.2-52.8 17.5-82 17.5-28.8 0-56.2-6.1-80.9-17" />
	<path class="d" d="m734.4 256.4c-21 32.2-50.9 58.1-86.4 74" />
	<path class="e" d="m766.6 148.2c0 40.3-11.8 77.8-32.2 109.2" />
	<path class="f"
		d="m770.2 148.3c0 1.9-1.6 3.5-3.6 3.5-1.9 0-3.5-1.6-3.5-3.5 0-2 1.6-3.6 3.5-3.6 2 0 3.6 1.6 3.6 3.6z" />
	<path class="g"
		d="m370.5 148.3c0 2.9-2.3 5.2-5.2 5.2-2.9 0-5.3-2.3-5.3-5.2 0-2.9 2.4-5.3 5.3-5.3 2.9 0 5.2 2.4 5.2 5.3z" />
	<path class="h"
		d="m741.6 257.4c0 3.9-3.2 7.1-7.2 7.1-3.9 0-7.1-3.2-7.1-7.1 0-4 3.2-7.2 7.1-7.2 4 0 7.2 3.2 7.2 7.2z" />
	<path class="i" d="m403.8 258.4c0 3.3-2.7 6-6 6-3.3 0-6-2.7-6-6 0-3.3 2.7-6 6-6 3.3 0 6 2.7 6 6z" />
	<path class="j" d="m657.4 331.4c0 5-4.1 9-9 9-5 0-9.1-4-9.1-9 0-5 4.1-9 9.1-9 4.9 0 9 4 9 9z" />
	<path class="k"
		d="m492.5 331.4c0 4-3.3 7.3-7.3 7.3-4.1 0-7.4-3.3-7.4-7.3 0-4.1 3.3-7.3 7.4-7.3 4 0 7.3 3.2 7.3 7.3z" />
	<g style="opacity:.5">
		<g style="opacity:.8">
			<path class="l"
				d="m688.9 581.2c25.3-9.9 49.5-21.9 72.4-36.1q17 27.5 34 55c-26.2 16.2-54 30-83 41.3q-11.7-30.1-23.4-60.2zm72.4-36.1c26.7-16.5 51.5-35.8 74.1-57.6q22.4 23.3 44.9 46.5c-25.9 25-54.4 47.1-85 66.1q-17-27.5-34-55zm74.1-57.6c21-20.3 40.1-42.6 56.8-66.9q26.6 18.3 53.2 36.7c-19.2 27.8-41.1 53.5-65.1 76.7q-22.5-23.2-44.9-46.5z" />
		</g>
		<g style="opacity:.8">
			<path class="m"
				d="m965.1 386.3c14.1-19.7 19.5-27.9 29.6-49.6q26.2 12.2 52.3 24.4c-11.6 24.9-18.8 36.1-35 58.7q-23.5-16.7-46.9-33.5zm29.6-49.6c11.9-25.4 27.7-64.7 33.9-92q28.1 6.4 56.2 12.7c-7.1 31.3-24.2 74.6-37.8 103.7q-26.1-12.2-52.3-24.4zm33.9-92c5.8-25.4 9-51.5 9.6-77.8q28.9 0.7 57.7 1.4c-0.7 30.1-4.4 60-11.1 89.1q-28.1-6.3-56.2-12.7z" />
		</g>
		<g style="opacity:.8">
			<path class="n"
				d="m443.7 672.5c-29-11.2-56.8-25.1-83-41.3q17-27.5 34-54.9c22.9 14.1 47.1 26.2 72.4 36q-11.7 30.1-23.4 60.2zm-83-41.3c-30.6-18.9-59.1-41.1-85-66q22.5-23.3 44.9-46.5c22.6 21.8 47.4 41.1 74.1 57.6q-17 27.4-34 54.9zm-85-66c-24-23.3-45.9-49-65.1-76.8q26.6-18.3 53.2-36.7c16.7 24.3 35.8 46.7 56.8 67q-22.4 23.2-44.9 46.5z" />
		</g>
		<g style="opacity:.8">
			<path class="o"
				d="m120 432c-16.2-22.6-30.1-46.6-41.7-71.5q26.1-12.2 52.2-24.4c10.2 21.8 22.3 42.6 36.4 62.4q-23.4 16.7-46.9 33.5zm-41.7-71.5c-13.6-29.1-24-59.6-31.1-90.9q28.1-6.4 56.2-12.8c6.2 27.3 15.3 53.9 27.1 79.3q-26.1 12.2-52.2 24.4zm-31.1-90.9c-6.7-29.1-10.4-59-11.1-89.2q28.8-0.7 57.7-1.3c0.6 26.3 3.8 52.3 9.6 77.7q-28.1 6.4-56.2 12.8z" />
		</g>
	</g>
	<g style="opacity:.4">
		<g style="opacity:.8">
			<path class="p"
				d="m431.4 141.3c0 55.1 25.5 93.3 60.7 114.6q0 35.6 0 71.2c-35.2-21.2-60.7-59.4-60.7-114.6q0-35.6 0-71.2zm60.7 114.6c41.1 24.8 95.6 26.5 138.5 5.1q0 35.6 0 71.2c-42.9 21.4-97.4 19.7-138.5-5.1q0-35.6 0-71.2zm138.5 5.1c40-19.9 70-59.8 70-119.7q0 35.6 0 71.2c0 59.9-30 99.8-70 119.7q0-35.6 0-71.2z" />
		</g>
	</g>
	<path class="q"
		d="m703.5 147.7c0 76-61.6 137.5-137.5 137.5-75.9 0-137.5-61.5-137.5-137.5 0-75.9 61.6-137.5 137.5-137.5 75.9 0 137.5 61.6 137.5 137.5z" />
	<path class="r"
		d="m439.7 348.3c22.4 26.6 50 48.7 81.2 64.9 10.2 5.2 15 17.2 11 28l-57.8 159.5c-4.5 12.5-18.8 18.5-30.9 12.9-71.9-32.9-134.3-83.1-181.8-145.3-8.1-10.5-5.4-25.8 5.8-33l142.7-91.6c9.6-6.3 22.4-4.2 29.8 4.6z" />
	<path class="r"
		d="m640.1 385.2c31.2-16.2 58.8-38.3 81.2-64.9 7.4-8.8 20.2-10.9 29.8-4.6l142.7 91.6c11.2 7.2 13.9 22.5 5.8 33-47.5 62.2-109.9 112.4-181.8 145.3-12.1 5.6-26.4-0.4-30.9-12.9l-57.8-159.5c-4-10.8 0.8-22.8 11-28z" />
	<path class="r"
		d="m852.3 163.2h169.6c13.3 0 23.8 11.3 22.7 24.5-5.4 67.3-24.6 130.7-54.9 187.3-6.2 11.7-21.2 15.5-32.3 8.3l-142.7-91.7c-9.7-6.2-13.1-18.7-8.2-29.1 11.6-24.6 19.6-51.3 23.2-79.3 1.5-11.4 11.1-20 22.6-20z" />
	<path class="r"
		d="m308.3 187.2c3.6 28 11.6 54.7 23.2 79.3 4.9 10.4 1.5 22.9-8.2 29.1l-142.7 91.7c-11.1 7.2-26.1 3.4-32.3-8.3-30.3-56.6-49.5-120-54.9-187.3-1.1-13.2 9.4-24.5 22.7-24.5h169.6c11.5 0 21.1 8.6 22.6 20z" />
	<path class="r"
		d="m703.5 141.7c0 76-61.6 137.5-137.5 137.5-75.9 0-137.5-61.5-137.5-137.5 0-75.9 61.6-137.5 137.5-137.5 75.9 0 137.5 61.6 137.5 137.5z" />
	<path class="s" d="m221.9 704.1v-144.2l21.4-21.4" />
	<path class="s" d="m888.7 538.5l21.4 21.4v144.2" />
	<path class="s" d="m22.9 374v-144.2h25.7" />
	<path class="s" d="m1083.4 219.8h25.7v144.2" />
</svg>