<svg version="1.2" xmlns="http://www.w3.org/2000/svg" viewBox="0 0 2520 1885" width="2520" height="1885">
	<title>881_business_people_website-ai</title>
	<style>
		.s0 { fill: #11244d } 
		.s1 { fill: #708fd1 } 
	</style>
	<g id="Landing Objects">
		<path id="&lt;Path&gt;" class="s0" d="m2533.4-16.1v1800.3c-175.8 59.5-353.7 84.2-512.6 87.5-213.5 4.5-392.7-29.7-486.4-69.9-171.1-73.4-217.7-164.4-411.2-194.6-25.1-3.9-49.3-6.3-72.7-7.5-127.2-6.4-229.5 22.5-311.3 31.3-60.9 6.5-110.5 1.8-150.5-37.2-59.8-58.3-68-163.8-48.8-234.6 37.9-140 192.2-178.1 247.7-336.5 7.2-20.8 23.1-67.8 17-128.6-4.3-42.1-17.5-75.2-27.9-96.5 0 0-1.6-2.7-3.4-5.3-52.8-77.6-197.2-119.4-197.2-119.4-132.4-38.3-259-75-299-163.6-11.3-25.2-42.3-100.3-4.5-235 67.5-240.4-266-290.4-266-290.4z"/>
		<path id="&lt;Path&gt;" class="s1" d="m2549.4-22.1v1800.3c-109.3 49-316.8 87.2-537.9 87.9-144.7 0.4-266.7-19.8-425.7-106.2-136-73.9-200.6-170.6-371.8-197.6-79.1-12.4-147.5-7.3-147.5-7.3-132.2 6.3-233.9 42.4-311.3 30.6-28.4-4.4-53.5-15.2-75.7-36.3-59.8-56.9-68-159.9-48.8-229 37.9-136.7 192.2-173.9 247.6-328.5 7.3-20.2 23.2-66.1 17-125.5-4.2-41.1-17.4-73.4-27.9-94.1 0 0-1.6-2.7-3.3-5.3-52.8-75.7-197.3-116.5-197.3-116.5-132.3-37.4-259-73.2-298.9-159.7-11.4-24.6-42.4-97.9-4.5-229.3 67.4-234.7-266-283.5-266-283.5z"/>
	</g>
</svg>