<svg xmlns="http://www.w3.org/2000/svg" version="1.2" viewBox="0 0 135 57" width="135" height="57">
	<title>5329121-ai</title>
	<style>
		.s0 { fill: #db172a } 
	</style>
	<g id="OBJECTS">
		<g id="&lt;Clip Group&gt;">
			<g id="&lt;Group&gt;">
				<g id="&lt;Group&gt;">
					<path id="&lt;Path&gt;" class="s0" d="m25.4 25.6l-8.2 4.8-8.3-4.8v-9.5l8.3-4.8 8.2 4.8z"/>
					<path id="&lt;Path&gt;" class="s0" d="m45.4 25.6l-8.3 4.8-8.2-4.8v-9.5l8.2-4.8 8.3 4.8z"/>
					<path id="&lt;Path&gt;" class="s0" d="m65.4 25.6l-8.3 4.8-8.3-4.8v-9.5l8.3-4.8 8.3 4.8z"/>
					<path id="&lt;Path&gt;" class="s0" d="m86.3 25.6l-8.2 4.8-8.3-4.8v-9.5l8.3-4.8 8.2 4.8z"/>
					<path id="&lt;Path&gt;" class="s0" d="m105.3 25.6l-8.3 4.8-8.2-4.8v-9.5l8.2-4.8 8.3 4.8z"/>
					<path id="&lt;Path&gt;" class="s0" d="m126.3 16.1v9.5l-8.3 4.8-8.2-4.8v-9.5l8.2-4.8z"/>
					<path id="&lt;Path&gt;" class="s0" d="m27.1 27.7l8.3 4.7v9.6l-8.3 4.7-8.2-4.7v-9.6z"/>
					<path id="&lt;Path&gt;" class="s0" d="m47.1 27.7l8.3 4.7v9.6l-8.3 4.7-8.3-4.7v-9.6z"/>
					<path id="&lt;Path&gt;" class="s0" d="m67.1 27.7l8.3 4.7v9.6l-8.3 4.7-8.3-4.7v-9.6z"/>
					<path id="&lt;Path&gt;" class="s0" d="m87.1 27.7l8.2 4.7v9.6l-8.2 4.7-8.3-4.7v-9.6z"/>
					<path id="&lt;Path&gt;" class="s0" d="m107 27.7l8.3 4.7v9.6l-8.3 4.7-8.2-4.7v-9.6z"/>
				</g>
			</g>
		</g>
	</g>
</svg>